%FSLAX25Y25*%
%MOIN*%
G70*
G01*
G75*
G04 Layer_Physical_Order=2*
G04 Layer_Color=16711680*
%ADD10C,0.05500*%
G04:AMPARAMS|DCode=11|XSize=118.11mil|YSize=118.11mil|CornerRadius=29.53mil|HoleSize=0mil|Usage=FLASHONLY|Rotation=270.000|XOffset=0mil|YOffset=0mil|HoleType=Round|Shape=RoundedRectangle|*
%AMROUNDEDRECTD11*
21,1,0.11811,0.05906,0,0,270.0*
21,1,0.05906,0.11811,0,0,270.0*
1,1,0.05906,-0.02953,-0.02953*
1,1,0.05906,-0.02953,0.02953*
1,1,0.05906,0.02953,0.02953*
1,1,0.05906,0.02953,-0.02953*
%
%ADD11ROUNDEDRECTD11*%
%ADD12C,0.05512*%
D11*
X14685Y11937D02*
D03*
X299685D02*
D03*
D12*
X254685Y23307D02*
D03*
Y63307D02*
D03*
Y73307D02*
D03*
Y113307D02*
D03*
Y123307D02*
D03*
Y163307D02*
D03*
Y173307D02*
D03*
Y213307D02*
D03*
Y223307D02*
D03*
Y263307D02*
D03*
X269685D02*
D03*
Y223307D02*
D03*
Y213307D02*
D03*
Y173307D02*
D03*
Y163307D02*
D03*
Y123307D02*
D03*
Y113307D02*
D03*
Y73307D02*
D03*
Y63307D02*
D03*
Y23307D02*
D03*
X284685D02*
D03*
Y63307D02*
D03*
Y73307D02*
D03*
Y113307D02*
D03*
Y123307D02*
D03*
Y163307D02*
D03*
Y173307D02*
D03*
Y213307D02*
D03*
Y223307D02*
D03*
Y263307D02*
D03*
X299685D02*
D03*
Y223307D02*
D03*
Y213307D02*
D03*
Y173307D02*
D03*
Y163307D02*
D03*
Y123307D02*
D03*
Y113307D02*
D03*
Y73307D02*
D03*
Y63307D02*
D03*
Y23307D02*
D03*
X194685D02*
D03*
Y63307D02*
D03*
Y73307D02*
D03*
Y113307D02*
D03*
Y123307D02*
D03*
Y163307D02*
D03*
Y173307D02*
D03*
Y213307D02*
D03*
Y223307D02*
D03*
Y263307D02*
D03*
X209685D02*
D03*
Y223307D02*
D03*
Y213307D02*
D03*
Y173307D02*
D03*
Y163307D02*
D03*
Y123307D02*
D03*
Y113307D02*
D03*
Y73307D02*
D03*
Y63307D02*
D03*
Y23307D02*
D03*
X224685D02*
D03*
Y63307D02*
D03*
Y73307D02*
D03*
Y113307D02*
D03*
Y123307D02*
D03*
Y163307D02*
D03*
Y173307D02*
D03*
Y213307D02*
D03*
Y223307D02*
D03*
Y263307D02*
D03*
X239685D02*
D03*
Y223307D02*
D03*
Y213307D02*
D03*
Y173307D02*
D03*
Y163307D02*
D03*
Y123307D02*
D03*
Y113307D02*
D03*
Y73307D02*
D03*
Y63307D02*
D03*
Y23307D02*
D03*
X134685D02*
D03*
Y63307D02*
D03*
Y73307D02*
D03*
Y113307D02*
D03*
Y123307D02*
D03*
Y163307D02*
D03*
Y173307D02*
D03*
Y213307D02*
D03*
Y223307D02*
D03*
Y263307D02*
D03*
X149685D02*
D03*
Y223307D02*
D03*
Y213307D02*
D03*
Y173307D02*
D03*
Y163307D02*
D03*
Y123307D02*
D03*
Y113307D02*
D03*
Y73307D02*
D03*
Y63307D02*
D03*
Y23307D02*
D03*
X164685D02*
D03*
Y63307D02*
D03*
Y73307D02*
D03*
Y113307D02*
D03*
Y123307D02*
D03*
Y163307D02*
D03*
Y173307D02*
D03*
Y213307D02*
D03*
Y223307D02*
D03*
Y263307D02*
D03*
X179685D02*
D03*
Y223307D02*
D03*
Y213307D02*
D03*
Y173307D02*
D03*
Y163307D02*
D03*
Y123307D02*
D03*
Y113307D02*
D03*
Y73307D02*
D03*
Y63307D02*
D03*
Y23307D02*
D03*
X74685D02*
D03*
Y63307D02*
D03*
Y73307D02*
D03*
Y113307D02*
D03*
Y123307D02*
D03*
Y163307D02*
D03*
Y173307D02*
D03*
Y213307D02*
D03*
Y223307D02*
D03*
Y263307D02*
D03*
X89685D02*
D03*
Y223307D02*
D03*
Y213307D02*
D03*
Y173307D02*
D03*
Y163307D02*
D03*
Y123307D02*
D03*
Y113307D02*
D03*
Y73307D02*
D03*
Y63307D02*
D03*
Y23307D02*
D03*
X104685D02*
D03*
Y63307D02*
D03*
Y73307D02*
D03*
Y113307D02*
D03*
Y123307D02*
D03*
Y163307D02*
D03*
Y173307D02*
D03*
Y213307D02*
D03*
Y223307D02*
D03*
Y263307D02*
D03*
X119685D02*
D03*
Y223307D02*
D03*
Y213307D02*
D03*
Y173307D02*
D03*
Y163307D02*
D03*
Y123307D02*
D03*
Y113307D02*
D03*
Y73307D02*
D03*
Y63307D02*
D03*
Y23307D02*
D03*
X14685D02*
D03*
Y63307D02*
D03*
Y73307D02*
D03*
Y113307D02*
D03*
Y123307D02*
D03*
Y163307D02*
D03*
Y173307D02*
D03*
Y213307D02*
D03*
Y223307D02*
D03*
Y263307D02*
D03*
X29685D02*
D03*
Y223307D02*
D03*
Y213307D02*
D03*
Y173307D02*
D03*
Y163307D02*
D03*
Y123307D02*
D03*
Y113307D02*
D03*
Y73307D02*
D03*
Y63307D02*
D03*
Y23307D02*
D03*
X44685D02*
D03*
Y63307D02*
D03*
Y73307D02*
D03*
Y113307D02*
D03*
Y123307D02*
D03*
Y163307D02*
D03*
Y173307D02*
D03*
Y213307D02*
D03*
Y223307D02*
D03*
Y263307D02*
D03*
X59685D02*
D03*
Y223307D02*
D03*
Y213307D02*
D03*
Y173307D02*
D03*
Y163307D02*
D03*
Y123307D02*
D03*
Y113307D02*
D03*
Y73307D02*
D03*
Y63307D02*
D03*
Y23307D02*
D03*
M02*
