%FSLAX25Y25*%
%MOIN*%
G70*
G01*
G75*
G04 Layer_Physical_Order=1*
G04 Layer_Color=255*
%ADD10C,0.05500*%
G04:AMPARAMS|DCode=11|XSize=118.11mil|YSize=118.11mil|CornerRadius=29.53mil|HoleSize=0mil|Usage=FLASHONLY|Rotation=270.000|XOffset=0mil|YOffset=0mil|HoleType=Round|Shape=RoundedRectangle|*
%AMROUNDEDRECTD11*
21,1,0.11811,0.05906,0,0,270.0*
21,1,0.05906,0.11811,0,0,270.0*
1,1,0.05906,-0.02953,-0.02953*
1,1,0.05906,-0.02953,0.02953*
1,1,0.05906,0.02953,0.02953*
1,1,0.05906,0.02953,-0.02953*
%
%ADD11ROUNDEDRECTD11*%
%ADD12C,0.05512*%
D10*
X299685Y11937D02*
Y23307D01*
X14685Y11937D02*
Y23307D01*
Y263307D02*
X29685D01*
X44685D02*
X59685D01*
X74685D02*
X89685D01*
X104685D02*
X119685D01*
X134685D02*
X149685D01*
X164685D02*
X179685D01*
X194685D02*
X209685D01*
X224685D02*
X239685D01*
X254685D02*
X269685D01*
X284685D02*
X299685D01*
X29685Y23307D02*
X44685D01*
X59685D02*
X74685D01*
X89685D02*
X104685D01*
X119685D02*
X134685D01*
X149685D02*
X164685D01*
X179685D02*
X194685D01*
X209685D02*
X224685D01*
X239685D02*
X254685D01*
X269685D02*
X284685D01*
X299685Y63307D02*
Y73307D01*
Y113307D02*
Y123307D01*
Y163307D02*
Y173307D01*
Y213307D02*
Y223307D01*
X284685Y213307D02*
Y223307D01*
Y163307D02*
Y173307D01*
Y113307D02*
Y123307D01*
Y63307D02*
Y73307D01*
X269685Y63307D02*
Y73307D01*
Y113307D02*
Y123307D01*
Y163307D02*
Y173307D01*
Y213307D02*
Y223307D01*
X254685Y213307D02*
Y223307D01*
Y163307D02*
Y173307D01*
Y113307D02*
Y123307D01*
Y63307D02*
Y73307D01*
X239685Y63307D02*
Y73307D01*
Y113307D02*
Y123307D01*
Y163307D02*
Y173307D01*
Y213307D02*
Y223307D01*
X224685Y213307D02*
Y223307D01*
Y163307D02*
Y173307D01*
Y113307D02*
Y123307D01*
Y63307D02*
Y73307D01*
X209685Y63307D02*
Y73307D01*
Y113307D02*
Y123307D01*
Y163307D02*
Y173307D01*
Y213307D02*
Y223307D01*
X194685Y213307D02*
Y223307D01*
Y163307D02*
Y173307D01*
Y113307D02*
Y123307D01*
Y63307D02*
Y73307D01*
X179685Y63307D02*
Y73307D01*
Y113307D02*
Y123307D01*
Y163307D02*
Y173307D01*
Y213307D02*
Y223307D01*
X164685Y213307D02*
Y223307D01*
Y163307D02*
Y173307D01*
Y113307D02*
Y123307D01*
Y63307D02*
Y73307D01*
X149685Y63307D02*
Y73307D01*
Y113307D02*
Y123307D01*
Y163307D02*
Y173307D01*
Y213307D02*
Y223307D01*
X134685Y213307D02*
Y223307D01*
Y163307D02*
Y173307D01*
Y113307D02*
Y123307D01*
Y63307D02*
Y73307D01*
X119685Y63307D02*
Y73307D01*
Y113307D02*
Y123307D01*
Y163307D02*
Y173307D01*
Y213307D02*
Y223307D01*
X104685Y213307D02*
Y223307D01*
Y163307D02*
Y173307D01*
Y113307D02*
Y123307D01*
Y63307D02*
Y73307D01*
X89685Y63307D02*
Y73307D01*
Y113307D02*
Y123307D01*
Y163307D02*
Y173307D01*
Y213307D02*
Y223307D01*
X74685Y213307D02*
Y223307D01*
Y163307D02*
Y173307D01*
Y113307D02*
Y123307D01*
Y63307D02*
Y73307D01*
X59685Y63307D02*
Y73307D01*
Y113307D02*
Y123307D01*
Y163307D02*
Y173307D01*
Y213307D02*
Y223307D01*
X44685Y213307D02*
Y223307D01*
Y163307D02*
Y173307D01*
Y113307D02*
Y123307D01*
Y63307D02*
Y73307D01*
X29685Y63307D02*
Y73307D01*
Y113307D02*
Y123307D01*
Y163307D02*
Y173307D01*
Y213307D02*
Y223307D01*
X14685Y213307D02*
Y223307D01*
Y163307D02*
Y173307D01*
Y113307D02*
Y123307D01*
Y63307D02*
Y73307D01*
D11*
Y11937D02*
D03*
X299685D02*
D03*
D12*
X254685Y23307D02*
D03*
Y63307D02*
D03*
Y73307D02*
D03*
Y113307D02*
D03*
Y123307D02*
D03*
Y163307D02*
D03*
Y173307D02*
D03*
Y213307D02*
D03*
Y223307D02*
D03*
Y263307D02*
D03*
X269685D02*
D03*
Y223307D02*
D03*
Y213307D02*
D03*
Y173307D02*
D03*
Y163307D02*
D03*
Y123307D02*
D03*
Y113307D02*
D03*
Y73307D02*
D03*
Y63307D02*
D03*
Y23307D02*
D03*
X284685D02*
D03*
Y63307D02*
D03*
Y73307D02*
D03*
Y113307D02*
D03*
Y123307D02*
D03*
Y163307D02*
D03*
Y173307D02*
D03*
Y213307D02*
D03*
Y223307D02*
D03*
Y263307D02*
D03*
X299685D02*
D03*
Y223307D02*
D03*
Y213307D02*
D03*
Y173307D02*
D03*
Y163307D02*
D03*
Y123307D02*
D03*
Y113307D02*
D03*
Y73307D02*
D03*
Y63307D02*
D03*
Y23307D02*
D03*
X194685D02*
D03*
Y63307D02*
D03*
Y73307D02*
D03*
Y113307D02*
D03*
Y123307D02*
D03*
Y163307D02*
D03*
Y173307D02*
D03*
Y213307D02*
D03*
Y223307D02*
D03*
Y263307D02*
D03*
X209685D02*
D03*
Y223307D02*
D03*
Y213307D02*
D03*
Y173307D02*
D03*
Y163307D02*
D03*
Y123307D02*
D03*
Y113307D02*
D03*
Y73307D02*
D03*
Y63307D02*
D03*
Y23307D02*
D03*
X224685D02*
D03*
Y63307D02*
D03*
Y73307D02*
D03*
Y113307D02*
D03*
Y123307D02*
D03*
Y163307D02*
D03*
Y173307D02*
D03*
Y213307D02*
D03*
Y223307D02*
D03*
Y263307D02*
D03*
X239685D02*
D03*
Y223307D02*
D03*
Y213307D02*
D03*
Y173307D02*
D03*
Y163307D02*
D03*
Y123307D02*
D03*
Y113307D02*
D03*
Y73307D02*
D03*
Y63307D02*
D03*
Y23307D02*
D03*
X134685D02*
D03*
Y63307D02*
D03*
Y73307D02*
D03*
Y113307D02*
D03*
Y123307D02*
D03*
Y163307D02*
D03*
Y173307D02*
D03*
Y213307D02*
D03*
Y223307D02*
D03*
Y263307D02*
D03*
X149685D02*
D03*
Y223307D02*
D03*
Y213307D02*
D03*
Y173307D02*
D03*
Y163307D02*
D03*
Y123307D02*
D03*
Y113307D02*
D03*
Y73307D02*
D03*
Y63307D02*
D03*
Y23307D02*
D03*
X164685D02*
D03*
Y63307D02*
D03*
Y73307D02*
D03*
Y113307D02*
D03*
Y123307D02*
D03*
Y163307D02*
D03*
Y173307D02*
D03*
Y213307D02*
D03*
Y223307D02*
D03*
Y263307D02*
D03*
X179685D02*
D03*
Y223307D02*
D03*
Y213307D02*
D03*
Y173307D02*
D03*
Y163307D02*
D03*
Y123307D02*
D03*
Y113307D02*
D03*
Y73307D02*
D03*
Y63307D02*
D03*
Y23307D02*
D03*
X74685D02*
D03*
Y63307D02*
D03*
Y73307D02*
D03*
Y113307D02*
D03*
Y123307D02*
D03*
Y163307D02*
D03*
Y173307D02*
D03*
Y213307D02*
D03*
Y223307D02*
D03*
Y263307D02*
D03*
X89685D02*
D03*
Y223307D02*
D03*
Y213307D02*
D03*
Y173307D02*
D03*
Y163307D02*
D03*
Y123307D02*
D03*
Y113307D02*
D03*
Y73307D02*
D03*
Y63307D02*
D03*
Y23307D02*
D03*
X104685D02*
D03*
Y63307D02*
D03*
Y73307D02*
D03*
Y113307D02*
D03*
Y123307D02*
D03*
Y163307D02*
D03*
Y173307D02*
D03*
Y213307D02*
D03*
Y223307D02*
D03*
Y263307D02*
D03*
X119685D02*
D03*
Y223307D02*
D03*
Y213307D02*
D03*
Y173307D02*
D03*
Y163307D02*
D03*
Y123307D02*
D03*
Y113307D02*
D03*
Y73307D02*
D03*
Y63307D02*
D03*
Y23307D02*
D03*
X14685D02*
D03*
Y63307D02*
D03*
Y73307D02*
D03*
Y113307D02*
D03*
Y123307D02*
D03*
Y163307D02*
D03*
Y173307D02*
D03*
Y213307D02*
D03*
Y223307D02*
D03*
Y263307D02*
D03*
X29685D02*
D03*
Y223307D02*
D03*
Y213307D02*
D03*
Y173307D02*
D03*
Y163307D02*
D03*
Y123307D02*
D03*
Y113307D02*
D03*
Y73307D02*
D03*
Y63307D02*
D03*
Y23307D02*
D03*
X44685D02*
D03*
Y63307D02*
D03*
Y73307D02*
D03*
Y113307D02*
D03*
Y123307D02*
D03*
Y163307D02*
D03*
Y173307D02*
D03*
Y213307D02*
D03*
Y223307D02*
D03*
Y263307D02*
D03*
X59685D02*
D03*
Y223307D02*
D03*
Y213307D02*
D03*
Y173307D02*
D03*
Y163307D02*
D03*
Y123307D02*
D03*
Y113307D02*
D03*
Y73307D02*
D03*
Y63307D02*
D03*
Y23307D02*
D03*
M02*
