%FSLAX25Y25*%
%MOIN*%
G70*
G01*
G75*
%ADD10C,0.05500*%
G04:AMPARAMS|DCode=11|XSize=118.11mil|YSize=118.11mil|CornerRadius=29.53mil|HoleSize=0mil|Usage=FLASHONLY|Rotation=270.000|XOffset=0mil|YOffset=0mil|HoleType=Round|Shape=RoundedRectangle|*
%AMROUNDEDRECTD11*
21,1,0.11811,0.05906,0,0,270.0*
21,1,0.05906,0.11811,0,0,270.0*
1,1,0.05906,-0.02953,-0.02953*
1,1,0.05906,-0.02953,0.02953*
1,1,0.05906,0.02953,0.02953*
1,1,0.05906,0.02953,-0.02953*
%
%ADD11ROUNDEDRECTD11*%
%ADD12C,0.05512*%
%ADD13C,0.00787*%
%ADD14C,0.00400*%
D13*
X254685Y27307D02*
Y31307D01*
Y55307D02*
Y59307D01*
X250685Y31307D02*
Y55307D01*
Y31307D02*
X258685D01*
Y55307D01*
X250685D02*
X258685D01*
X254685Y77307D02*
Y81307D01*
Y105307D02*
Y109307D01*
X250685Y81307D02*
Y105307D01*
Y81307D02*
X258685D01*
Y105307D01*
X250685D02*
X258685D01*
X254685Y127307D02*
Y131307D01*
Y155307D02*
Y159307D01*
X250685Y131307D02*
Y155307D01*
Y131307D02*
X258685D01*
Y155307D01*
X250685D02*
X258685D01*
X254685Y177307D02*
Y181307D01*
Y205307D02*
Y209307D01*
X250685Y181307D02*
Y205307D01*
Y181307D02*
X258685D01*
Y205307D01*
X250685D02*
X258685D01*
X254685Y227307D02*
Y231307D01*
Y255307D02*
Y259307D01*
X250685Y231307D02*
Y255307D01*
Y231307D02*
X258685D01*
Y255307D01*
X250685D02*
X258685D01*
X269685D02*
Y259307D01*
Y227307D02*
Y231307D01*
X273685D02*
Y255307D01*
X265685D02*
X273685D01*
X265685Y231307D02*
Y255307D01*
Y231307D02*
X273685D01*
X269685Y205307D02*
Y209307D01*
Y177307D02*
Y181307D01*
X273685D02*
Y205307D01*
X265685D02*
X273685D01*
X265685Y181307D02*
Y205307D01*
Y181307D02*
X273685D01*
X269685Y155307D02*
Y159307D01*
Y127307D02*
Y131307D01*
X273685D02*
Y155307D01*
X265685D02*
X273685D01*
X265685Y131307D02*
Y155307D01*
Y131307D02*
X273685D01*
X269685Y105307D02*
Y109307D01*
Y77307D02*
Y81307D01*
X273685D02*
Y105307D01*
X265685D02*
X273685D01*
X265685Y81307D02*
Y105307D01*
Y81307D02*
X273685D01*
X269685Y55307D02*
Y59307D01*
Y27307D02*
Y31307D01*
X273685D02*
Y55307D01*
X265685D02*
X273685D01*
X265685Y31307D02*
Y55307D01*
Y31307D02*
X273685D01*
X284685Y27307D02*
Y31307D01*
Y55307D02*
Y59307D01*
X280685Y31307D02*
Y55307D01*
Y31307D02*
X288685D01*
Y55307D01*
X280685D02*
X288685D01*
X284685Y77307D02*
Y81307D01*
Y105307D02*
Y109307D01*
X280685Y81307D02*
Y105307D01*
Y81307D02*
X288685D01*
Y105307D01*
X280685D02*
X288685D01*
X284685Y127307D02*
Y131307D01*
Y155307D02*
Y159307D01*
X280685Y131307D02*
Y155307D01*
Y131307D02*
X288685D01*
Y155307D01*
X280685D02*
X288685D01*
X284685Y177307D02*
Y181307D01*
Y205307D02*
Y209307D01*
X280685Y181307D02*
Y205307D01*
Y181307D02*
X288685D01*
Y205307D01*
X280685D02*
X288685D01*
X284685Y227307D02*
Y231307D01*
Y255307D02*
Y259307D01*
X280685Y231307D02*
Y255307D01*
Y231307D02*
X288685D01*
Y255307D01*
X280685D02*
X288685D01*
X299685D02*
Y259307D01*
Y227307D02*
Y231307D01*
X303685D02*
Y255307D01*
X295685D02*
X303685D01*
X295685Y231307D02*
Y255307D01*
Y231307D02*
X303685D01*
X299685Y205307D02*
Y209307D01*
Y177307D02*
Y181307D01*
X303685D02*
Y205307D01*
X295685D02*
X303685D01*
X295685Y181307D02*
Y205307D01*
Y181307D02*
X303685D01*
X299685Y155307D02*
Y159307D01*
Y127307D02*
Y131307D01*
X303685D02*
Y155307D01*
X295685D02*
X303685D01*
X295685Y131307D02*
Y155307D01*
Y131307D02*
X303685D01*
X299685Y105307D02*
Y109307D01*
Y77307D02*
Y81307D01*
X303685D02*
Y105307D01*
X295685D02*
X303685D01*
X295685Y81307D02*
Y105307D01*
Y81307D02*
X303685D01*
X299685Y55307D02*
Y59307D01*
Y27307D02*
Y31307D01*
X303685D02*
Y55307D01*
X295685D02*
X303685D01*
X295685Y31307D02*
Y55307D01*
Y31307D02*
X303685D01*
X194685Y27307D02*
Y31307D01*
Y55307D02*
Y59307D01*
X190685Y31307D02*
Y55307D01*
Y31307D02*
X198685D01*
Y55307D01*
X190685D02*
X198685D01*
X194685Y77307D02*
Y81307D01*
Y105307D02*
Y109307D01*
X190685Y81307D02*
Y105307D01*
Y81307D02*
X198685D01*
Y105307D01*
X190685D02*
X198685D01*
X194685Y127307D02*
Y131307D01*
Y155307D02*
Y159307D01*
X190685Y131307D02*
Y155307D01*
Y131307D02*
X198685D01*
Y155307D01*
X190685D02*
X198685D01*
X194685Y177307D02*
Y181307D01*
Y205307D02*
Y209307D01*
X190685Y181307D02*
Y205307D01*
Y181307D02*
X198685D01*
Y205307D01*
X190685D02*
X198685D01*
X194685Y227307D02*
Y231307D01*
Y255307D02*
Y259307D01*
X190685Y231307D02*
Y255307D01*
Y231307D02*
X198685D01*
Y255307D01*
X190685D02*
X198685D01*
X209685D02*
Y259307D01*
Y227307D02*
Y231307D01*
X213685D02*
Y255307D01*
X205685D02*
X213685D01*
X205685Y231307D02*
Y255307D01*
Y231307D02*
X213685D01*
X209685Y205307D02*
Y209307D01*
Y177307D02*
Y181307D01*
X213685D02*
Y205307D01*
X205685D02*
X213685D01*
X205685Y181307D02*
Y205307D01*
Y181307D02*
X213685D01*
X209685Y155307D02*
Y159307D01*
Y127307D02*
Y131307D01*
X213685D02*
Y155307D01*
X205685D02*
X213685D01*
X205685Y131307D02*
Y155307D01*
Y131307D02*
X213685D01*
X209685Y105307D02*
Y109307D01*
Y77307D02*
Y81307D01*
X213685D02*
Y105307D01*
X205685D02*
X213685D01*
X205685Y81307D02*
Y105307D01*
Y81307D02*
X213685D01*
X209685Y55307D02*
Y59307D01*
Y27307D02*
Y31307D01*
X213685D02*
Y55307D01*
X205685D02*
X213685D01*
X205685Y31307D02*
Y55307D01*
Y31307D02*
X213685D01*
X224685Y27307D02*
Y31307D01*
Y55307D02*
Y59307D01*
X220685Y31307D02*
Y55307D01*
Y31307D02*
X228685D01*
Y55307D01*
X220685D02*
X228685D01*
X224685Y77307D02*
Y81307D01*
Y105307D02*
Y109307D01*
X220685Y81307D02*
Y105307D01*
Y81307D02*
X228685D01*
Y105307D01*
X220685D02*
X228685D01*
X224685Y127307D02*
Y131307D01*
Y155307D02*
Y159307D01*
X220685Y131307D02*
Y155307D01*
Y131307D02*
X228685D01*
Y155307D01*
X220685D02*
X228685D01*
X224685Y177307D02*
Y181307D01*
Y205307D02*
Y209307D01*
X220685Y181307D02*
Y205307D01*
Y181307D02*
X228685D01*
Y205307D01*
X220685D02*
X228685D01*
X224685Y227307D02*
Y231307D01*
Y255307D02*
Y259307D01*
X220685Y231307D02*
Y255307D01*
Y231307D02*
X228685D01*
Y255307D01*
X220685D02*
X228685D01*
X239685D02*
Y259307D01*
Y227307D02*
Y231307D01*
X243685D02*
Y255307D01*
X235685D02*
X243685D01*
X235685Y231307D02*
Y255307D01*
Y231307D02*
X243685D01*
X239685Y205307D02*
Y209307D01*
Y177307D02*
Y181307D01*
X243685D02*
Y205307D01*
X235685D02*
X243685D01*
X235685Y181307D02*
Y205307D01*
Y181307D02*
X243685D01*
X239685Y155307D02*
Y159307D01*
Y127307D02*
Y131307D01*
X243685D02*
Y155307D01*
X235685D02*
X243685D01*
X235685Y131307D02*
Y155307D01*
Y131307D02*
X243685D01*
X239685Y105307D02*
Y109307D01*
Y77307D02*
Y81307D01*
X243685D02*
Y105307D01*
X235685D02*
X243685D01*
X235685Y81307D02*
Y105307D01*
Y81307D02*
X243685D01*
X239685Y55307D02*
Y59307D01*
Y27307D02*
Y31307D01*
X243685D02*
Y55307D01*
X235685D02*
X243685D01*
X235685Y31307D02*
Y55307D01*
Y31307D02*
X243685D01*
X134685Y27307D02*
Y31307D01*
Y55307D02*
Y59307D01*
X130685Y31307D02*
Y55307D01*
Y31307D02*
X138685D01*
Y55307D01*
X130685D02*
X138685D01*
X134685Y77307D02*
Y81307D01*
Y105307D02*
Y109307D01*
X130685Y81307D02*
Y105307D01*
Y81307D02*
X138685D01*
Y105307D01*
X130685D02*
X138685D01*
X134685Y127307D02*
Y131307D01*
Y155307D02*
Y159307D01*
X130685Y131307D02*
Y155307D01*
Y131307D02*
X138685D01*
Y155307D01*
X130685D02*
X138685D01*
X134685Y177307D02*
Y181307D01*
Y205307D02*
Y209307D01*
X130685Y181307D02*
Y205307D01*
Y181307D02*
X138685D01*
Y205307D01*
X130685D02*
X138685D01*
X134685Y227307D02*
Y231307D01*
Y255307D02*
Y259307D01*
X130685Y231307D02*
Y255307D01*
Y231307D02*
X138685D01*
Y255307D01*
X130685D02*
X138685D01*
X149685D02*
Y259307D01*
Y227307D02*
Y231307D01*
X153685D02*
Y255307D01*
X145685D02*
X153685D01*
X145685Y231307D02*
Y255307D01*
Y231307D02*
X153685D01*
X149685Y205307D02*
Y209307D01*
Y177307D02*
Y181307D01*
X153685D02*
Y205307D01*
X145685D02*
X153685D01*
X145685Y181307D02*
Y205307D01*
Y181307D02*
X153685D01*
X149685Y155307D02*
Y159307D01*
Y127307D02*
Y131307D01*
X153685D02*
Y155307D01*
X145685D02*
X153685D01*
X145685Y131307D02*
Y155307D01*
Y131307D02*
X153685D01*
X149685Y105307D02*
Y109307D01*
Y77307D02*
Y81307D01*
X153685D02*
Y105307D01*
X145685D02*
X153685D01*
X145685Y81307D02*
Y105307D01*
Y81307D02*
X153685D01*
X149685Y55307D02*
Y59307D01*
Y27307D02*
Y31307D01*
X153685D02*
Y55307D01*
X145685D02*
X153685D01*
X145685Y31307D02*
Y55307D01*
Y31307D02*
X153685D01*
X164685Y27307D02*
Y31307D01*
Y55307D02*
Y59307D01*
X160685Y31307D02*
Y55307D01*
Y31307D02*
X168685D01*
Y55307D01*
X160685D02*
X168685D01*
X164685Y77307D02*
Y81307D01*
Y105307D02*
Y109307D01*
X160685Y81307D02*
Y105307D01*
Y81307D02*
X168685D01*
Y105307D01*
X160685D02*
X168685D01*
X164685Y127307D02*
Y131307D01*
Y155307D02*
Y159307D01*
X160685Y131307D02*
Y155307D01*
Y131307D02*
X168685D01*
Y155307D01*
X160685D02*
X168685D01*
X164685Y177307D02*
Y181307D01*
Y205307D02*
Y209307D01*
X160685Y181307D02*
Y205307D01*
Y181307D02*
X168685D01*
Y205307D01*
X160685D02*
X168685D01*
X164685Y227307D02*
Y231307D01*
Y255307D02*
Y259307D01*
X160685Y231307D02*
Y255307D01*
Y231307D02*
X168685D01*
Y255307D01*
X160685D02*
X168685D01*
X179685D02*
Y259307D01*
Y227307D02*
Y231307D01*
X183685D02*
Y255307D01*
X175685D02*
X183685D01*
X175685Y231307D02*
Y255307D01*
Y231307D02*
X183685D01*
X179685Y205307D02*
Y209307D01*
Y177307D02*
Y181307D01*
X183685D02*
Y205307D01*
X175685D02*
X183685D01*
X175685Y181307D02*
Y205307D01*
Y181307D02*
X183685D01*
X179685Y155307D02*
Y159307D01*
Y127307D02*
Y131307D01*
X183685D02*
Y155307D01*
X175685D02*
X183685D01*
X175685Y131307D02*
Y155307D01*
Y131307D02*
X183685D01*
X179685Y105307D02*
Y109307D01*
Y77307D02*
Y81307D01*
X183685D02*
Y105307D01*
X175685D02*
X183685D01*
X175685Y81307D02*
Y105307D01*
Y81307D02*
X183685D01*
X179685Y55307D02*
Y59307D01*
Y27307D02*
Y31307D01*
X183685D02*
Y55307D01*
X175685D02*
X183685D01*
X175685Y31307D02*
Y55307D01*
Y31307D02*
X183685D01*
X74685Y27307D02*
Y31307D01*
Y55307D02*
Y59307D01*
X70685Y31307D02*
Y55307D01*
Y31307D02*
X78685D01*
Y55307D01*
X70685D02*
X78685D01*
X74685Y77307D02*
Y81307D01*
Y105307D02*
Y109307D01*
X70685Y81307D02*
Y105307D01*
Y81307D02*
X78685D01*
Y105307D01*
X70685D02*
X78685D01*
X74685Y127307D02*
Y131307D01*
Y155307D02*
Y159307D01*
X70685Y131307D02*
Y155307D01*
Y131307D02*
X78685D01*
Y155307D01*
X70685D02*
X78685D01*
X74685Y177307D02*
Y181307D01*
Y205307D02*
Y209307D01*
X70685Y181307D02*
Y205307D01*
Y181307D02*
X78685D01*
Y205307D01*
X70685D02*
X78685D01*
X74685Y227307D02*
Y231307D01*
Y255307D02*
Y259307D01*
X70685Y231307D02*
Y255307D01*
Y231307D02*
X78685D01*
Y255307D01*
X70685D02*
X78685D01*
X89685D02*
Y259307D01*
Y227307D02*
Y231307D01*
X93685D02*
Y255307D01*
X85685D02*
X93685D01*
X85685Y231307D02*
Y255307D01*
Y231307D02*
X93685D01*
X89685Y205307D02*
Y209307D01*
Y177307D02*
Y181307D01*
X93685D02*
Y205307D01*
X85685D02*
X93685D01*
X85685Y181307D02*
Y205307D01*
Y181307D02*
X93685D01*
X89685Y155307D02*
Y159307D01*
Y127307D02*
Y131307D01*
X93685D02*
Y155307D01*
X85685D02*
X93685D01*
X85685Y131307D02*
Y155307D01*
Y131307D02*
X93685D01*
X89685Y105307D02*
Y109307D01*
Y77307D02*
Y81307D01*
X93685D02*
Y105307D01*
X85685D02*
X93685D01*
X85685Y81307D02*
Y105307D01*
Y81307D02*
X93685D01*
X89685Y55307D02*
Y59307D01*
Y27307D02*
Y31307D01*
X93685D02*
Y55307D01*
X85685D02*
X93685D01*
X85685Y31307D02*
Y55307D01*
Y31307D02*
X93685D01*
X104685Y27307D02*
Y31307D01*
Y55307D02*
Y59307D01*
X100685Y31307D02*
Y55307D01*
Y31307D02*
X108685D01*
Y55307D01*
X100685D02*
X108685D01*
X104685Y77307D02*
Y81307D01*
Y105307D02*
Y109307D01*
X100685Y81307D02*
Y105307D01*
Y81307D02*
X108685D01*
Y105307D01*
X100685D02*
X108685D01*
X104685Y127307D02*
Y131307D01*
Y155307D02*
Y159307D01*
X100685Y131307D02*
Y155307D01*
Y131307D02*
X108685D01*
Y155307D01*
X100685D02*
X108685D01*
X104685Y177307D02*
Y181307D01*
Y205307D02*
Y209307D01*
X100685Y181307D02*
Y205307D01*
Y181307D02*
X108685D01*
Y205307D01*
X100685D02*
X108685D01*
X104685Y227307D02*
Y231307D01*
Y255307D02*
Y259307D01*
X100685Y231307D02*
Y255307D01*
Y231307D02*
X108685D01*
Y255307D01*
X100685D02*
X108685D01*
X119685D02*
Y259307D01*
Y227307D02*
Y231307D01*
X123685D02*
Y255307D01*
X115685D02*
X123685D01*
X115685Y231307D02*
Y255307D01*
Y231307D02*
X123685D01*
X119685Y205307D02*
Y209307D01*
Y177307D02*
Y181307D01*
X123685D02*
Y205307D01*
X115685D02*
X123685D01*
X115685Y181307D02*
Y205307D01*
Y181307D02*
X123685D01*
X119685Y155307D02*
Y159307D01*
Y127307D02*
Y131307D01*
X123685D02*
Y155307D01*
X115685D02*
X123685D01*
X115685Y131307D02*
Y155307D01*
Y131307D02*
X123685D01*
X119685Y105307D02*
Y109307D01*
Y77307D02*
Y81307D01*
X123685D02*
Y105307D01*
X115685D02*
X123685D01*
X115685Y81307D02*
Y105307D01*
Y81307D02*
X123685D01*
X119685Y55307D02*
Y59307D01*
Y27307D02*
Y31307D01*
X123685D02*
Y55307D01*
X115685D02*
X123685D01*
X115685Y31307D02*
Y55307D01*
Y31307D02*
X123685D01*
X14685Y27307D02*
Y31307D01*
Y55307D02*
Y59307D01*
X10685Y31307D02*
Y55307D01*
Y31307D02*
X18685D01*
Y55307D01*
X10685D02*
X18685D01*
X14685Y77307D02*
Y81307D01*
Y105307D02*
Y109307D01*
X10685Y81307D02*
Y105307D01*
Y81307D02*
X18685D01*
Y105307D01*
X10685D02*
X18685D01*
X14685Y127307D02*
Y131307D01*
Y155307D02*
Y159307D01*
X10685Y131307D02*
Y155307D01*
Y131307D02*
X18685D01*
Y155307D01*
X10685D02*
X18685D01*
X14685Y177307D02*
Y181307D01*
Y205307D02*
Y209307D01*
X10685Y181307D02*
Y205307D01*
Y181307D02*
X18685D01*
Y205307D01*
X10685D02*
X18685D01*
X14685Y227307D02*
Y231307D01*
Y255307D02*
Y259307D01*
X10685Y231307D02*
Y255307D01*
Y231307D02*
X18685D01*
Y255307D01*
X10685D02*
X18685D01*
X29685D02*
Y259307D01*
Y227307D02*
Y231307D01*
X33685D02*
Y255307D01*
X25685D02*
X33685D01*
X25685Y231307D02*
Y255307D01*
Y231307D02*
X33685D01*
X29685Y205307D02*
Y209307D01*
Y177307D02*
Y181307D01*
X33685D02*
Y205307D01*
X25685D02*
X33685D01*
X25685Y181307D02*
Y205307D01*
Y181307D02*
X33685D01*
X29685Y155307D02*
Y159307D01*
Y127307D02*
Y131307D01*
X33685D02*
Y155307D01*
X25685D02*
X33685D01*
X25685Y131307D02*
Y155307D01*
Y131307D02*
X33685D01*
X29685Y105307D02*
Y109307D01*
Y77307D02*
Y81307D01*
X33685D02*
Y105307D01*
X25685D02*
X33685D01*
X25685Y81307D02*
Y105307D01*
Y81307D02*
X33685D01*
X29685Y55307D02*
Y59307D01*
Y27307D02*
Y31307D01*
X33685D02*
Y55307D01*
X25685D02*
X33685D01*
X25685Y31307D02*
Y55307D01*
Y31307D02*
X33685D01*
X44685Y27307D02*
Y31307D01*
Y55307D02*
Y59307D01*
X40685Y31307D02*
Y55307D01*
Y31307D02*
X48685D01*
Y55307D01*
X40685D02*
X48685D01*
X44685Y77307D02*
Y81307D01*
Y105307D02*
Y109307D01*
X40685Y81307D02*
Y105307D01*
Y81307D02*
X48685D01*
Y105307D01*
X40685D02*
X48685D01*
X44685Y127307D02*
Y131307D01*
Y155307D02*
Y159307D01*
X40685Y131307D02*
Y155307D01*
Y131307D02*
X48685D01*
Y155307D01*
X40685D02*
X48685D01*
X44685Y177307D02*
Y181307D01*
Y205307D02*
Y209307D01*
X40685Y181307D02*
Y205307D01*
Y181307D02*
X48685D01*
Y205307D01*
X40685D02*
X48685D01*
X44685Y227307D02*
Y231307D01*
Y255307D02*
Y259307D01*
X40685Y231307D02*
Y255307D01*
Y231307D02*
X48685D01*
Y255307D01*
X40685D02*
X48685D01*
X59685D02*
Y259307D01*
Y227307D02*
Y231307D01*
X63685D02*
Y255307D01*
X55685D02*
X63685D01*
X55685Y231307D02*
Y255307D01*
Y231307D02*
X63685D01*
X59685Y205307D02*
Y209307D01*
Y177307D02*
Y181307D01*
X63685D02*
Y205307D01*
X55685D02*
X63685D01*
X55685Y181307D02*
Y205307D01*
Y181307D02*
X63685D01*
X59685Y155307D02*
Y159307D01*
Y127307D02*
Y131307D01*
X63685D02*
Y155307D01*
X55685D02*
X63685D01*
X55685Y131307D02*
Y155307D01*
Y131307D02*
X63685D01*
X59685Y105307D02*
Y109307D01*
Y77307D02*
Y81307D01*
X63685D02*
Y105307D01*
X55685D02*
X63685D01*
X55685Y81307D02*
Y105307D01*
Y81307D02*
X63685D01*
X59685Y55307D02*
Y59307D01*
Y27307D02*
Y31307D01*
X63685D02*
Y55307D01*
X55685D02*
X63685D01*
X55685Y31307D02*
Y55307D01*
Y31307D02*
X63685D01*
D14*
X24016Y13735D02*
X26348D01*
X25182D01*
Y10236D01*
X27515D02*
Y13735D01*
X29264D01*
X29847Y13152D01*
Y11986D01*
X29264Y11402D01*
X27515D01*
X31014Y10236D02*
X32180D01*
X31597D01*
Y13735D01*
X31014Y13152D01*
X279134Y13341D02*
X281466D01*
X280300D01*
Y9843D01*
X282633D02*
Y13341D01*
X284382D01*
X284965Y12758D01*
Y11592D01*
X284382Y11009D01*
X282633D01*
X288464Y9843D02*
X286132D01*
X288464Y12175D01*
Y12758D01*
X287881Y13341D01*
X286715D01*
X286132Y12758D01*
X9685Y33307D02*
X6186D01*
Y35056D01*
X6769Y35640D01*
X7936D01*
X8519Y35056D01*
Y33307D01*
Y34473D02*
X9685Y35640D01*
Y36806D02*
Y37972D01*
Y37389D01*
X6186D01*
X6769Y36806D01*
X9685Y83307D02*
X6186D01*
Y85057D01*
X6769Y85640D01*
X7936D01*
X8519Y85057D01*
Y83307D01*
Y84473D02*
X9685Y85640D01*
Y89139D02*
Y86806D01*
X7352Y89139D01*
X6769D01*
X6186Y88555D01*
Y87389D01*
X6769Y86806D01*
X9685Y133307D02*
X6186D01*
Y135056D01*
X6769Y135640D01*
X7936D01*
X8519Y135056D01*
Y133307D01*
Y134473D02*
X9685Y135640D01*
X6769Y136806D02*
X6186Y137389D01*
Y138555D01*
X6769Y139138D01*
X7352D01*
X7936Y138555D01*
Y137972D01*
Y138555D01*
X8519Y139138D01*
X9102D01*
X9685Y138555D01*
Y137389D01*
X9102Y136806D01*
X9685Y183307D02*
X6186D01*
Y185056D01*
X6769Y185640D01*
X7936D01*
X8519Y185056D01*
Y183307D01*
Y184473D02*
X9685Y185640D01*
Y188555D02*
X6186D01*
X7936Y186806D01*
Y189138D01*
X9685Y233307D02*
X6186D01*
Y235056D01*
X6769Y235640D01*
X7936D01*
X8519Y235056D01*
Y233307D01*
Y234473D02*
X9685Y235640D01*
X6186Y239139D02*
Y236806D01*
X7936D01*
X7352Y237972D01*
Y238555D01*
X7936Y239139D01*
X9102D01*
X9685Y238555D01*
Y237389D01*
X9102Y236806D01*
X24685Y233307D02*
X21186D01*
Y235056D01*
X21769Y235640D01*
X22936D01*
X23519Y235056D01*
Y233307D01*
Y234473D02*
X24685Y235640D01*
X21186Y239139D02*
X21769Y237972D01*
X22936Y236806D01*
X24102D01*
X24685Y237389D01*
Y238555D01*
X24102Y239139D01*
X23519D01*
X22936Y238555D01*
Y236806D01*
X24685Y183307D02*
X21186D01*
Y185056D01*
X21769Y185640D01*
X22936D01*
X23519Y185056D01*
Y183307D01*
Y184473D02*
X24685Y185640D01*
X21186Y186806D02*
Y189138D01*
X21769D01*
X24102Y186806D01*
X24685D01*
Y133307D02*
X21186D01*
Y135056D01*
X21769Y135640D01*
X22936D01*
X23519Y135056D01*
Y133307D01*
Y134473D02*
X24685Y135640D01*
X21769Y136806D02*
X21186Y137389D01*
Y138555D01*
X21769Y139138D01*
X22353D01*
X22936Y138555D01*
X23519Y139138D01*
X24102D01*
X24685Y138555D01*
Y137389D01*
X24102Y136806D01*
X23519D01*
X22936Y137389D01*
X22353Y136806D01*
X21769D01*
X22936Y137389D02*
Y138555D01*
X24685Y83307D02*
X21186D01*
Y85057D01*
X21769Y85640D01*
X22936D01*
X23519Y85057D01*
Y83307D01*
Y84473D02*
X24685Y85640D01*
X24102Y86806D02*
X24685Y87389D01*
Y88555D01*
X24102Y89139D01*
X21769D01*
X21186Y88555D01*
Y87389D01*
X21769Y86806D01*
X22353D01*
X22936Y87389D01*
Y89139D01*
X24685Y33307D02*
X21186D01*
Y35056D01*
X21769Y35640D01*
X22936D01*
X23519Y35056D01*
Y33307D01*
Y34473D02*
X24685Y35640D01*
Y36806D02*
Y37972D01*
Y37389D01*
X21186D01*
X21769Y36806D01*
Y39722D02*
X21186Y40305D01*
Y41471D01*
X21769Y42054D01*
X24102D01*
X24685Y41471D01*
Y40305D01*
X24102Y39722D01*
X21769D01*
X39685Y33307D02*
X36186D01*
Y35056D01*
X36769Y35640D01*
X37936D01*
X38519Y35056D01*
Y33307D01*
Y34473D02*
X39685Y35640D01*
Y36806D02*
Y37972D01*
Y37389D01*
X36186D01*
X36769Y36806D01*
X39685Y39722D02*
Y40888D01*
Y40305D01*
X36186D01*
X36769Y39722D01*
X39685Y83307D02*
X36186D01*
Y85057D01*
X36769Y85640D01*
X37936D01*
X38519Y85057D01*
Y83307D01*
Y84473D02*
X39685Y85640D01*
Y86806D02*
Y87972D01*
Y87389D01*
X36186D01*
X36769Y86806D01*
X39685Y92054D02*
Y89722D01*
X37352Y92054D01*
X36769D01*
X36186Y91471D01*
Y90305D01*
X36769Y89722D01*
X39685Y133307D02*
X36186D01*
Y135056D01*
X36769Y135640D01*
X37936D01*
X38519Y135056D01*
Y133307D01*
Y134473D02*
X39685Y135640D01*
Y136806D02*
Y137972D01*
Y137389D01*
X36186D01*
X36769Y136806D01*
Y139722D02*
X36186Y140305D01*
Y141471D01*
X36769Y142054D01*
X37352D01*
X37936Y141471D01*
Y140888D01*
Y141471D01*
X38519Y142054D01*
X39102D01*
X39685Y141471D01*
Y140305D01*
X39102Y139722D01*
X39685Y183307D02*
X36186D01*
Y185056D01*
X36769Y185640D01*
X37936D01*
X38519Y185056D01*
Y183307D01*
Y184473D02*
X39685Y185640D01*
Y186806D02*
Y187972D01*
Y187389D01*
X36186D01*
X36769Y186806D01*
X39685Y191471D02*
X36186D01*
X37936Y189722D01*
Y192054D01*
X39685Y233307D02*
X36186D01*
Y235056D01*
X36769Y235640D01*
X37936D01*
X38519Y235056D01*
Y233307D01*
Y234473D02*
X39685Y235640D01*
Y236806D02*
Y237972D01*
Y237389D01*
X36186D01*
X36769Y236806D01*
X36186Y242054D02*
Y239722D01*
X37936D01*
X37352Y240888D01*
Y241471D01*
X37936Y242054D01*
X39102D01*
X39685Y241471D01*
Y240305D01*
X39102Y239722D01*
X54685Y233307D02*
X51186D01*
Y235056D01*
X51769Y235640D01*
X52936D01*
X53519Y235056D01*
Y233307D01*
Y234473D02*
X54685Y235640D01*
Y236806D02*
Y237972D01*
Y237389D01*
X51186D01*
X51769Y236806D01*
X51186Y242054D02*
X51769Y240888D01*
X52936Y239722D01*
X54102D01*
X54685Y240305D01*
Y241471D01*
X54102Y242054D01*
X53519D01*
X52936Y241471D01*
Y239722D01*
X54685Y183307D02*
X51186D01*
Y185056D01*
X51769Y185640D01*
X52936D01*
X53519Y185056D01*
Y183307D01*
Y184473D02*
X54685Y185640D01*
Y186806D02*
Y187972D01*
Y187389D01*
X51186D01*
X51769Y186806D01*
X51186Y189722D02*
Y192054D01*
X51769D01*
X54102Y189722D01*
X54685D01*
Y133307D02*
X51186D01*
Y135056D01*
X51769Y135640D01*
X52936D01*
X53519Y135056D01*
Y133307D01*
Y134473D02*
X54685Y135640D01*
Y136806D02*
Y137972D01*
Y137389D01*
X51186D01*
X51769Y136806D01*
Y139722D02*
X51186Y140305D01*
Y141471D01*
X51769Y142054D01*
X52352D01*
X52936Y141471D01*
X53519Y142054D01*
X54102D01*
X54685Y141471D01*
Y140305D01*
X54102Y139722D01*
X53519D01*
X52936Y140305D01*
X52352Y139722D01*
X51769D01*
X52936Y140305D02*
Y141471D01*
X54685Y83307D02*
X51186D01*
Y85057D01*
X51769Y85640D01*
X52936D01*
X53519Y85057D01*
Y83307D01*
Y84473D02*
X54685Y85640D01*
Y86806D02*
Y87972D01*
Y87389D01*
X51186D01*
X51769Y86806D01*
X54102Y89722D02*
X54685Y90305D01*
Y91471D01*
X54102Y92054D01*
X51769D01*
X51186Y91471D01*
Y90305D01*
X51769Y89722D01*
X52352D01*
X52936Y90305D01*
Y92054D01*
X54685Y33307D02*
X51186D01*
Y35056D01*
X51769Y35640D01*
X52936D01*
X53519Y35056D01*
Y33307D01*
Y34473D02*
X54685Y35640D01*
Y39138D02*
Y36806D01*
X52352Y39138D01*
X51769D01*
X51186Y38555D01*
Y37389D01*
X51769Y36806D01*
Y40305D02*
X51186Y40888D01*
Y42054D01*
X51769Y42637D01*
X54102D01*
X54685Y42054D01*
Y40888D01*
X54102Y40305D01*
X51769D01*
X69685Y33307D02*
X66186D01*
Y35056D01*
X66769Y35640D01*
X67936D01*
X68519Y35056D01*
Y33307D01*
Y34473D02*
X69685Y35640D01*
Y39138D02*
Y36806D01*
X67352Y39138D01*
X66769D01*
X66186Y38555D01*
Y37389D01*
X66769Y36806D01*
X69685Y40305D02*
Y41471D01*
Y40888D01*
X66186D01*
X66769Y40305D01*
X69685Y83307D02*
X66186D01*
Y85057D01*
X66769Y85640D01*
X67936D01*
X68519Y85057D01*
Y83307D01*
Y84473D02*
X69685Y85640D01*
Y89139D02*
Y86806D01*
X67352Y89139D01*
X66769D01*
X66186Y88555D01*
Y87389D01*
X66769Y86806D01*
X69685Y92637D02*
Y90305D01*
X67352Y92637D01*
X66769D01*
X66186Y92054D01*
Y90888D01*
X66769Y90305D01*
X69685Y133307D02*
X66186D01*
Y135056D01*
X66769Y135640D01*
X67936D01*
X68519Y135056D01*
Y133307D01*
Y134473D02*
X69685Y135640D01*
Y139138D02*
Y136806D01*
X67352Y139138D01*
X66769D01*
X66186Y138555D01*
Y137389D01*
X66769Y136806D01*
Y140305D02*
X66186Y140888D01*
Y142054D01*
X66769Y142637D01*
X67352D01*
X67936Y142054D01*
Y141471D01*
Y142054D01*
X68519Y142637D01*
X69102D01*
X69685Y142054D01*
Y140888D01*
X69102Y140305D01*
X69685Y183307D02*
X66186D01*
Y185056D01*
X66769Y185640D01*
X67936D01*
X68519Y185056D01*
Y183307D01*
Y184473D02*
X69685Y185640D01*
Y189138D02*
Y186806D01*
X67352Y189138D01*
X66769D01*
X66186Y188555D01*
Y187389D01*
X66769Y186806D01*
X69685Y192054D02*
X66186D01*
X67936Y190305D01*
Y192637D01*
X69685Y233307D02*
X66186D01*
Y235056D01*
X66769Y235640D01*
X67936D01*
X68519Y235056D01*
Y233307D01*
Y234473D02*
X69685Y235640D01*
Y239139D02*
Y236806D01*
X67352Y239139D01*
X66769D01*
X66186Y238555D01*
Y237389D01*
X66769Y236806D01*
X66186Y242637D02*
Y240305D01*
X67936D01*
X67352Y241471D01*
Y242054D01*
X67936Y242637D01*
X69102D01*
X69685Y242054D01*
Y240888D01*
X69102Y240305D01*
X84685Y233307D02*
X81186D01*
Y235056D01*
X81769Y235640D01*
X82936D01*
X83519Y235056D01*
Y233307D01*
Y234473D02*
X84685Y235640D01*
Y239139D02*
Y236806D01*
X82353Y239139D01*
X81769D01*
X81186Y238555D01*
Y237389D01*
X81769Y236806D01*
X81186Y242637D02*
X81769Y241471D01*
X82936Y240305D01*
X84102D01*
X84685Y240888D01*
Y242054D01*
X84102Y242637D01*
X83519D01*
X82936Y242054D01*
Y240305D01*
X84685Y183307D02*
X81186D01*
Y185056D01*
X81769Y185640D01*
X82936D01*
X83519Y185056D01*
Y183307D01*
Y184473D02*
X84685Y185640D01*
Y189138D02*
Y186806D01*
X82353Y189138D01*
X81769D01*
X81186Y188555D01*
Y187389D01*
X81769Y186806D01*
X81186Y190305D02*
Y192637D01*
X81769D01*
X84102Y190305D01*
X84685D01*
Y133307D02*
X81186D01*
Y135056D01*
X81769Y135640D01*
X82936D01*
X83519Y135056D01*
Y133307D01*
Y134473D02*
X84685Y135640D01*
Y139138D02*
Y136806D01*
X82353Y139138D01*
X81769D01*
X81186Y138555D01*
Y137389D01*
X81769Y136806D01*
Y140305D02*
X81186Y140888D01*
Y142054D01*
X81769Y142637D01*
X82353D01*
X82936Y142054D01*
X83519Y142637D01*
X84102D01*
X84685Y142054D01*
Y140888D01*
X84102Y140305D01*
X83519D01*
X82936Y140888D01*
X82353Y140305D01*
X81769D01*
X82936Y140888D02*
Y142054D01*
X84685Y83307D02*
X81186D01*
Y85057D01*
X81769Y85640D01*
X82936D01*
X83519Y85057D01*
Y83307D01*
Y84473D02*
X84685Y85640D01*
Y89139D02*
Y86806D01*
X82353Y89139D01*
X81769D01*
X81186Y88555D01*
Y87389D01*
X81769Y86806D01*
X84102Y90305D02*
X84685Y90888D01*
Y92054D01*
X84102Y92637D01*
X81769D01*
X81186Y92054D01*
Y90888D01*
X81769Y90305D01*
X82353D01*
X82936Y90888D01*
Y92637D01*
X84685Y33307D02*
X81186D01*
Y35056D01*
X81769Y35640D01*
X82936D01*
X83519Y35056D01*
Y33307D01*
Y34473D02*
X84685Y35640D01*
X81769Y36806D02*
X81186Y37389D01*
Y38555D01*
X81769Y39138D01*
X82353D01*
X82936Y38555D01*
Y37972D01*
Y38555D01*
X83519Y39138D01*
X84102D01*
X84685Y38555D01*
Y37389D01*
X84102Y36806D01*
X81769Y40305D02*
X81186Y40888D01*
Y42054D01*
X81769Y42637D01*
X84102D01*
X84685Y42054D01*
Y40888D01*
X84102Y40305D01*
X81769D01*
X99685Y33307D02*
X96186D01*
Y35056D01*
X96769Y35640D01*
X97936D01*
X98519Y35056D01*
Y33307D01*
Y34473D02*
X99685Y35640D01*
X96769Y36806D02*
X96186Y37389D01*
Y38555D01*
X96769Y39138D01*
X97352D01*
X97936Y38555D01*
Y37972D01*
Y38555D01*
X98519Y39138D01*
X99102D01*
X99685Y38555D01*
Y37389D01*
X99102Y36806D01*
X99685Y40305D02*
Y41471D01*
Y40888D01*
X96186D01*
X96769Y40305D01*
X99685Y83307D02*
X96186D01*
Y85057D01*
X96769Y85640D01*
X97936D01*
X98519Y85057D01*
Y83307D01*
Y84473D02*
X99685Y85640D01*
X96769Y86806D02*
X96186Y87389D01*
Y88555D01*
X96769Y89139D01*
X97352D01*
X97936Y88555D01*
Y87972D01*
Y88555D01*
X98519Y89139D01*
X99102D01*
X99685Y88555D01*
Y87389D01*
X99102Y86806D01*
X99685Y92637D02*
Y90305D01*
X97352Y92637D01*
X96769D01*
X96186Y92054D01*
Y90888D01*
X96769Y90305D01*
X99685Y133307D02*
X96186D01*
Y135056D01*
X96769Y135640D01*
X97936D01*
X98519Y135056D01*
Y133307D01*
Y134473D02*
X99685Y135640D01*
X96769Y136806D02*
X96186Y137389D01*
Y138555D01*
X96769Y139138D01*
X97352D01*
X97936Y138555D01*
Y137972D01*
Y138555D01*
X98519Y139138D01*
X99102D01*
X99685Y138555D01*
Y137389D01*
X99102Y136806D01*
X96769Y140305D02*
X96186Y140888D01*
Y142054D01*
X96769Y142637D01*
X97352D01*
X97936Y142054D01*
Y141471D01*
Y142054D01*
X98519Y142637D01*
X99102D01*
X99685Y142054D01*
Y140888D01*
X99102Y140305D01*
X99685Y183307D02*
X96186D01*
Y185056D01*
X96769Y185640D01*
X97936D01*
X98519Y185056D01*
Y183307D01*
Y184473D02*
X99685Y185640D01*
X96769Y186806D02*
X96186Y187389D01*
Y188555D01*
X96769Y189138D01*
X97352D01*
X97936Y188555D01*
Y187972D01*
Y188555D01*
X98519Y189138D01*
X99102D01*
X99685Y188555D01*
Y187389D01*
X99102Y186806D01*
X99685Y192054D02*
X96186D01*
X97936Y190305D01*
Y192637D01*
X99685Y233307D02*
X96186D01*
Y235056D01*
X96769Y235640D01*
X97936D01*
X98519Y235056D01*
Y233307D01*
Y234473D02*
X99685Y235640D01*
X96769Y236806D02*
X96186Y237389D01*
Y238555D01*
X96769Y239139D01*
X97352D01*
X97936Y238555D01*
Y237972D01*
Y238555D01*
X98519Y239139D01*
X99102D01*
X99685Y238555D01*
Y237389D01*
X99102Y236806D01*
X96186Y242637D02*
Y240305D01*
X97936D01*
X97352Y241471D01*
Y242054D01*
X97936Y242637D01*
X99102D01*
X99685Y242054D01*
Y240888D01*
X99102Y240305D01*
X114685Y233307D02*
X111186D01*
Y235056D01*
X111769Y235640D01*
X112936D01*
X113519Y235056D01*
Y233307D01*
Y234473D02*
X114685Y235640D01*
X111769Y236806D02*
X111186Y237389D01*
Y238555D01*
X111769Y239139D01*
X112353D01*
X112936Y238555D01*
Y237972D01*
Y238555D01*
X113519Y239139D01*
X114102D01*
X114685Y238555D01*
Y237389D01*
X114102Y236806D01*
X111186Y242637D02*
X111769Y241471D01*
X112936Y240305D01*
X114102D01*
X114685Y240888D01*
Y242054D01*
X114102Y242637D01*
X113519D01*
X112936Y242054D01*
Y240305D01*
X114685Y183307D02*
X111186D01*
Y185056D01*
X111769Y185640D01*
X112936D01*
X113519Y185056D01*
Y183307D01*
Y184473D02*
X114685Y185640D01*
X111769Y186806D02*
X111186Y187389D01*
Y188555D01*
X111769Y189138D01*
X112353D01*
X112936Y188555D01*
Y187972D01*
Y188555D01*
X113519Y189138D01*
X114102D01*
X114685Y188555D01*
Y187389D01*
X114102Y186806D01*
X111186Y190305D02*
Y192637D01*
X111769D01*
X114102Y190305D01*
X114685D01*
Y133307D02*
X111186D01*
Y135056D01*
X111769Y135640D01*
X112936D01*
X113519Y135056D01*
Y133307D01*
Y134473D02*
X114685Y135640D01*
X111769Y136806D02*
X111186Y137389D01*
Y138555D01*
X111769Y139138D01*
X112353D01*
X112936Y138555D01*
Y137972D01*
Y138555D01*
X113519Y139138D01*
X114102D01*
X114685Y138555D01*
Y137389D01*
X114102Y136806D01*
X111769Y140305D02*
X111186Y140888D01*
Y142054D01*
X111769Y142637D01*
X112353D01*
X112936Y142054D01*
X113519Y142637D01*
X114102D01*
X114685Y142054D01*
Y140888D01*
X114102Y140305D01*
X113519D01*
X112936Y140888D01*
X112353Y140305D01*
X111769D01*
X112936Y140888D02*
Y142054D01*
X114685Y83307D02*
X111186D01*
Y85057D01*
X111769Y85640D01*
X112936D01*
X113519Y85057D01*
Y83307D01*
Y84473D02*
X114685Y85640D01*
X111769Y86806D02*
X111186Y87389D01*
Y88555D01*
X111769Y89139D01*
X112353D01*
X112936Y88555D01*
Y87972D01*
Y88555D01*
X113519Y89139D01*
X114102D01*
X114685Y88555D01*
Y87389D01*
X114102Y86806D01*
Y90305D02*
X114685Y90888D01*
Y92054D01*
X114102Y92637D01*
X111769D01*
X111186Y92054D01*
Y90888D01*
X111769Y90305D01*
X112353D01*
X112936Y90888D01*
Y92637D01*
X114685Y33307D02*
X111186D01*
Y35056D01*
X111769Y35640D01*
X112936D01*
X113519Y35056D01*
Y33307D01*
Y34473D02*
X114685Y35640D01*
Y38555D02*
X111186D01*
X112936Y36806D01*
Y39138D01*
X111769Y40305D02*
X111186Y40888D01*
Y42054D01*
X111769Y42637D01*
X114102D01*
X114685Y42054D01*
Y40888D01*
X114102Y40305D01*
X111769D01*
X129685Y33307D02*
X126186D01*
Y35056D01*
X126769Y35640D01*
X127936D01*
X128519Y35056D01*
Y33307D01*
Y34473D02*
X129685Y35640D01*
Y38555D02*
X126186D01*
X127936Y36806D01*
Y39138D01*
X129685Y40305D02*
Y41471D01*
Y40888D01*
X126186D01*
X126769Y40305D01*
X129685Y83307D02*
X126186D01*
Y85057D01*
X126769Y85640D01*
X127936D01*
X128519Y85057D01*
Y83307D01*
Y84473D02*
X129685Y85640D01*
Y88555D02*
X126186D01*
X127936Y86806D01*
Y89139D01*
X129685Y92637D02*
Y90305D01*
X127352Y92637D01*
X126769D01*
X126186Y92054D01*
Y90888D01*
X126769Y90305D01*
X129685Y133307D02*
X126186D01*
Y135056D01*
X126769Y135640D01*
X127936D01*
X128519Y135056D01*
Y133307D01*
Y134473D02*
X129685Y135640D01*
Y138555D02*
X126186D01*
X127936Y136806D01*
Y139138D01*
X126769Y140305D02*
X126186Y140888D01*
Y142054D01*
X126769Y142637D01*
X127352D01*
X127936Y142054D01*
Y141471D01*
Y142054D01*
X128519Y142637D01*
X129102D01*
X129685Y142054D01*
Y140888D01*
X129102Y140305D01*
X129685Y183307D02*
X126186D01*
Y185056D01*
X126769Y185640D01*
X127936D01*
X128519Y185056D01*
Y183307D01*
Y184473D02*
X129685Y185640D01*
Y188555D02*
X126186D01*
X127936Y186806D01*
Y189138D01*
X129685Y192054D02*
X126186D01*
X127936Y190305D01*
Y192637D01*
X129685Y233307D02*
X126186D01*
Y235056D01*
X126769Y235640D01*
X127936D01*
X128519Y235056D01*
Y233307D01*
Y234473D02*
X129685Y235640D01*
Y238555D02*
X126186D01*
X127936Y236806D01*
Y239139D01*
X126186Y242637D02*
Y240305D01*
X127936D01*
X127352Y241471D01*
Y242054D01*
X127936Y242637D01*
X129102D01*
X129685Y242054D01*
Y240888D01*
X129102Y240305D01*
X144685Y233307D02*
X141186D01*
Y235056D01*
X141769Y235640D01*
X142936D01*
X143519Y235056D01*
Y233307D01*
Y234473D02*
X144685Y235640D01*
Y238555D02*
X141186D01*
X142936Y236806D01*
Y239139D01*
X141186Y242637D02*
X141769Y241471D01*
X142936Y240305D01*
X144102D01*
X144685Y240888D01*
Y242054D01*
X144102Y242637D01*
X143519D01*
X142936Y242054D01*
Y240305D01*
X144685Y183307D02*
X141186D01*
Y185056D01*
X141769Y185640D01*
X142936D01*
X143519Y185056D01*
Y183307D01*
Y184473D02*
X144685Y185640D01*
Y188555D02*
X141186D01*
X142936Y186806D01*
Y189138D01*
X141186Y190305D02*
Y192637D01*
X141769D01*
X144102Y190305D01*
X144685D01*
Y133307D02*
X141186D01*
Y135056D01*
X141769Y135640D01*
X142936D01*
X143519Y135056D01*
Y133307D01*
Y134473D02*
X144685Y135640D01*
Y138555D02*
X141186D01*
X142936Y136806D01*
Y139138D01*
X141769Y140305D02*
X141186Y140888D01*
Y142054D01*
X141769Y142637D01*
X142352D01*
X142936Y142054D01*
X143519Y142637D01*
X144102D01*
X144685Y142054D01*
Y140888D01*
X144102Y140305D01*
X143519D01*
X142936Y140888D01*
X142352Y140305D01*
X141769D01*
X142936Y140888D02*
Y142054D01*
X144685Y83307D02*
X141186D01*
Y85057D01*
X141769Y85640D01*
X142936D01*
X143519Y85057D01*
Y83307D01*
Y84473D02*
X144685Y85640D01*
Y88555D02*
X141186D01*
X142936Y86806D01*
Y89139D01*
X144102Y90305D02*
X144685Y90888D01*
Y92054D01*
X144102Y92637D01*
X141769D01*
X141186Y92054D01*
Y90888D01*
X141769Y90305D01*
X142352D01*
X142936Y90888D01*
Y92637D01*
X144685Y33307D02*
X141186D01*
Y35056D01*
X141769Y35640D01*
X142936D01*
X143519Y35056D01*
Y33307D01*
Y34473D02*
X144685Y35640D01*
X141186Y39138D02*
Y36806D01*
X142936D01*
X142352Y37972D01*
Y38555D01*
X142936Y39138D01*
X144102D01*
X144685Y38555D01*
Y37389D01*
X144102Y36806D01*
X141769Y40305D02*
X141186Y40888D01*
Y42054D01*
X141769Y42637D01*
X144102D01*
X144685Y42054D01*
Y40888D01*
X144102Y40305D01*
X141769D01*
X159685Y33307D02*
X156186D01*
Y35056D01*
X156769Y35640D01*
X157936D01*
X158519Y35056D01*
Y33307D01*
Y34473D02*
X159685Y35640D01*
X156186Y39138D02*
Y36806D01*
X157936D01*
X157352Y37972D01*
Y38555D01*
X157936Y39138D01*
X159102D01*
X159685Y38555D01*
Y37389D01*
X159102Y36806D01*
X159685Y40305D02*
Y41471D01*
Y40888D01*
X156186D01*
X156769Y40305D01*
X159685Y83307D02*
X156186D01*
Y85057D01*
X156769Y85640D01*
X157936D01*
X158519Y85057D01*
Y83307D01*
Y84473D02*
X159685Y85640D01*
X156186Y89139D02*
Y86806D01*
X157936D01*
X157352Y87972D01*
Y88555D01*
X157936Y89139D01*
X159102D01*
X159685Y88555D01*
Y87389D01*
X159102Y86806D01*
X159685Y92637D02*
Y90305D01*
X157352Y92637D01*
X156769D01*
X156186Y92054D01*
Y90888D01*
X156769Y90305D01*
X159685Y133307D02*
X156186D01*
Y135056D01*
X156769Y135640D01*
X157936D01*
X158519Y135056D01*
Y133307D01*
Y134473D02*
X159685Y135640D01*
X156186Y139138D02*
Y136806D01*
X157936D01*
X157352Y137972D01*
Y138555D01*
X157936Y139138D01*
X159102D01*
X159685Y138555D01*
Y137389D01*
X159102Y136806D01*
X156769Y140305D02*
X156186Y140888D01*
Y142054D01*
X156769Y142637D01*
X157352D01*
X157936Y142054D01*
Y141471D01*
Y142054D01*
X158519Y142637D01*
X159102D01*
X159685Y142054D01*
Y140888D01*
X159102Y140305D01*
X159685Y183307D02*
X156186D01*
Y185056D01*
X156769Y185640D01*
X157936D01*
X158519Y185056D01*
Y183307D01*
Y184473D02*
X159685Y185640D01*
X156186Y189138D02*
Y186806D01*
X157936D01*
X157352Y187972D01*
Y188555D01*
X157936Y189138D01*
X159102D01*
X159685Y188555D01*
Y187389D01*
X159102Y186806D01*
X159685Y192054D02*
X156186D01*
X157936Y190305D01*
Y192637D01*
X159685Y233307D02*
X156186D01*
Y235056D01*
X156769Y235640D01*
X157936D01*
X158519Y235056D01*
Y233307D01*
Y234473D02*
X159685Y235640D01*
X156186Y239139D02*
Y236806D01*
X157936D01*
X157352Y237972D01*
Y238555D01*
X157936Y239139D01*
X159102D01*
X159685Y238555D01*
Y237389D01*
X159102Y236806D01*
X156186Y242637D02*
Y240305D01*
X157936D01*
X157352Y241471D01*
Y242054D01*
X157936Y242637D01*
X159102D01*
X159685Y242054D01*
Y240888D01*
X159102Y240305D01*
X174685Y233307D02*
X171186D01*
Y235056D01*
X171769Y235640D01*
X172936D01*
X173519Y235056D01*
Y233307D01*
Y234473D02*
X174685Y235640D01*
X171186Y239139D02*
Y236806D01*
X172936D01*
X172353Y237972D01*
Y238555D01*
X172936Y239139D01*
X174102D01*
X174685Y238555D01*
Y237389D01*
X174102Y236806D01*
X171186Y242637D02*
X171769Y241471D01*
X172936Y240305D01*
X174102D01*
X174685Y240888D01*
Y242054D01*
X174102Y242637D01*
X173519D01*
X172936Y242054D01*
Y240305D01*
X174685Y183307D02*
X171186D01*
Y185056D01*
X171769Y185640D01*
X172936D01*
X173519Y185056D01*
Y183307D01*
Y184473D02*
X174685Y185640D01*
X171186Y189138D02*
Y186806D01*
X172936D01*
X172353Y187972D01*
Y188555D01*
X172936Y189138D01*
X174102D01*
X174685Y188555D01*
Y187389D01*
X174102Y186806D01*
X171186Y190305D02*
Y192637D01*
X171769D01*
X174102Y190305D01*
X174685D01*
Y133307D02*
X171186D01*
Y135056D01*
X171769Y135640D01*
X172936D01*
X173519Y135056D01*
Y133307D01*
Y134473D02*
X174685Y135640D01*
X171186Y139138D02*
Y136806D01*
X172936D01*
X172353Y137972D01*
Y138555D01*
X172936Y139138D01*
X174102D01*
X174685Y138555D01*
Y137389D01*
X174102Y136806D01*
X171769Y140305D02*
X171186Y140888D01*
Y142054D01*
X171769Y142637D01*
X172353D01*
X172936Y142054D01*
X173519Y142637D01*
X174102D01*
X174685Y142054D01*
Y140888D01*
X174102Y140305D01*
X173519D01*
X172936Y140888D01*
X172353Y140305D01*
X171769D01*
X172936Y140888D02*
Y142054D01*
X174685Y83307D02*
X171186D01*
Y85057D01*
X171769Y85640D01*
X172936D01*
X173519Y85057D01*
Y83307D01*
Y84473D02*
X174685Y85640D01*
X171186Y89139D02*
Y86806D01*
X172936D01*
X172353Y87972D01*
Y88555D01*
X172936Y89139D01*
X174102D01*
X174685Y88555D01*
Y87389D01*
X174102Y86806D01*
Y90305D02*
X174685Y90888D01*
Y92054D01*
X174102Y92637D01*
X171769D01*
X171186Y92054D01*
Y90888D01*
X171769Y90305D01*
X172353D01*
X172936Y90888D01*
Y92637D01*
X174685Y33307D02*
X171186D01*
Y35056D01*
X171769Y35640D01*
X172936D01*
X173519Y35056D01*
Y33307D01*
Y34473D02*
X174685Y35640D01*
X171186Y39138D02*
X171769Y37972D01*
X172936Y36806D01*
X174102D01*
X174685Y37389D01*
Y38555D01*
X174102Y39138D01*
X173519D01*
X172936Y38555D01*
Y36806D01*
X171769Y40305D02*
X171186Y40888D01*
Y42054D01*
X171769Y42637D01*
X174102D01*
X174685Y42054D01*
Y40888D01*
X174102Y40305D01*
X171769D01*
X189685Y33307D02*
X186186D01*
Y35056D01*
X186769Y35640D01*
X187936D01*
X188519Y35056D01*
Y33307D01*
Y34473D02*
X189685Y35640D01*
X186186Y39138D02*
X186769Y37972D01*
X187936Y36806D01*
X189102D01*
X189685Y37389D01*
Y38555D01*
X189102Y39138D01*
X188519D01*
X187936Y38555D01*
Y36806D01*
X189685Y40305D02*
Y41471D01*
Y40888D01*
X186186D01*
X186769Y40305D01*
X189685Y83307D02*
X186186D01*
Y85057D01*
X186769Y85640D01*
X187936D01*
X188519Y85057D01*
Y83307D01*
Y84473D02*
X189685Y85640D01*
X186186Y89139D02*
X186769Y87972D01*
X187936Y86806D01*
X189102D01*
X189685Y87389D01*
Y88555D01*
X189102Y89139D01*
X188519D01*
X187936Y88555D01*
Y86806D01*
X189685Y92637D02*
Y90305D01*
X187353Y92637D01*
X186769D01*
X186186Y92054D01*
Y90888D01*
X186769Y90305D01*
X189685Y133307D02*
X186186D01*
Y135056D01*
X186769Y135640D01*
X187936D01*
X188519Y135056D01*
Y133307D01*
Y134473D02*
X189685Y135640D01*
X186186Y139138D02*
X186769Y137972D01*
X187936Y136806D01*
X189102D01*
X189685Y137389D01*
Y138555D01*
X189102Y139138D01*
X188519D01*
X187936Y138555D01*
Y136806D01*
X186769Y140305D02*
X186186Y140888D01*
Y142054D01*
X186769Y142637D01*
X187353D01*
X187936Y142054D01*
Y141471D01*
Y142054D01*
X188519Y142637D01*
X189102D01*
X189685Y142054D01*
Y140888D01*
X189102Y140305D01*
X189685Y183307D02*
X186186D01*
Y185056D01*
X186769Y185640D01*
X187936D01*
X188519Y185056D01*
Y183307D01*
Y184473D02*
X189685Y185640D01*
X186186Y189138D02*
X186769Y187972D01*
X187936Y186806D01*
X189102D01*
X189685Y187389D01*
Y188555D01*
X189102Y189138D01*
X188519D01*
X187936Y188555D01*
Y186806D01*
X189685Y192054D02*
X186186D01*
X187936Y190305D01*
Y192637D01*
X189685Y233307D02*
X186186D01*
Y235056D01*
X186769Y235640D01*
X187936D01*
X188519Y235056D01*
Y233307D01*
Y234473D02*
X189685Y235640D01*
X186186Y239139D02*
X186769Y237972D01*
X187936Y236806D01*
X189102D01*
X189685Y237389D01*
Y238555D01*
X189102Y239139D01*
X188519D01*
X187936Y238555D01*
Y236806D01*
X186186Y242637D02*
Y240305D01*
X187936D01*
X187353Y241471D01*
Y242054D01*
X187936Y242637D01*
X189102D01*
X189685Y242054D01*
Y240888D01*
X189102Y240305D01*
X204685Y233307D02*
X201186D01*
Y235056D01*
X201769Y235640D01*
X202936D01*
X203519Y235056D01*
Y233307D01*
Y234473D02*
X204685Y235640D01*
X201186Y239139D02*
X201769Y237972D01*
X202936Y236806D01*
X204102D01*
X204685Y237389D01*
Y238555D01*
X204102Y239139D01*
X203519D01*
X202936Y238555D01*
Y236806D01*
X201186Y242637D02*
X201769Y241471D01*
X202936Y240305D01*
X204102D01*
X204685Y240888D01*
Y242054D01*
X204102Y242637D01*
X203519D01*
X202936Y242054D01*
Y240305D01*
X204685Y183307D02*
X201186D01*
Y185056D01*
X201769Y185640D01*
X202936D01*
X203519Y185056D01*
Y183307D01*
Y184473D02*
X204685Y185640D01*
X201186Y189138D02*
X201769Y187972D01*
X202936Y186806D01*
X204102D01*
X204685Y187389D01*
Y188555D01*
X204102Y189138D01*
X203519D01*
X202936Y188555D01*
Y186806D01*
X201186Y190305D02*
Y192637D01*
X201769D01*
X204102Y190305D01*
X204685D01*
Y133307D02*
X201186D01*
Y135056D01*
X201769Y135640D01*
X202936D01*
X203519Y135056D01*
Y133307D01*
Y134473D02*
X204685Y135640D01*
X201186Y139138D02*
X201769Y137972D01*
X202936Y136806D01*
X204102D01*
X204685Y137389D01*
Y138555D01*
X204102Y139138D01*
X203519D01*
X202936Y138555D01*
Y136806D01*
X201769Y140305D02*
X201186Y140888D01*
Y142054D01*
X201769Y142637D01*
X202352D01*
X202936Y142054D01*
X203519Y142637D01*
X204102D01*
X204685Y142054D01*
Y140888D01*
X204102Y140305D01*
X203519D01*
X202936Y140888D01*
X202352Y140305D01*
X201769D01*
X202936Y140888D02*
Y142054D01*
X204685Y83307D02*
X201186D01*
Y85057D01*
X201769Y85640D01*
X202936D01*
X203519Y85057D01*
Y83307D01*
Y84473D02*
X204685Y85640D01*
X201186Y89139D02*
X201769Y87972D01*
X202936Y86806D01*
X204102D01*
X204685Y87389D01*
Y88555D01*
X204102Y89139D01*
X203519D01*
X202936Y88555D01*
Y86806D01*
X204102Y90305D02*
X204685Y90888D01*
Y92054D01*
X204102Y92637D01*
X201769D01*
X201186Y92054D01*
Y90888D01*
X201769Y90305D01*
X202352D01*
X202936Y90888D01*
Y92637D01*
X204685Y33307D02*
X201186D01*
Y35056D01*
X201769Y35640D01*
X202936D01*
X203519Y35056D01*
Y33307D01*
Y34473D02*
X204685Y35640D01*
X201186Y36806D02*
Y39138D01*
X201769D01*
X204102Y36806D01*
X204685D01*
X201769Y40305D02*
X201186Y40888D01*
Y42054D01*
X201769Y42637D01*
X204102D01*
X204685Y42054D01*
Y40888D01*
X204102Y40305D01*
X201769D01*
X219685Y33307D02*
X216186D01*
Y35056D01*
X216769Y35640D01*
X217936D01*
X218519Y35056D01*
Y33307D01*
Y34473D02*
X219685Y35640D01*
X216186Y36806D02*
Y39138D01*
X216769D01*
X219102Y36806D01*
X219685D01*
Y40305D02*
Y41471D01*
Y40888D01*
X216186D01*
X216769Y40305D01*
X219685Y83307D02*
X216186D01*
Y85057D01*
X216769Y85640D01*
X217936D01*
X218519Y85057D01*
Y83307D01*
Y84473D02*
X219685Y85640D01*
X216186Y86806D02*
Y89139D01*
X216769D01*
X219102Y86806D01*
X219685D01*
Y92637D02*
Y90305D01*
X217353Y92637D01*
X216769D01*
X216186Y92054D01*
Y90888D01*
X216769Y90305D01*
X219685Y133307D02*
X216186D01*
Y135056D01*
X216769Y135640D01*
X217936D01*
X218519Y135056D01*
Y133307D01*
Y134473D02*
X219685Y135640D01*
X216186Y136806D02*
Y139138D01*
X216769D01*
X219102Y136806D01*
X219685D01*
X216769Y140305D02*
X216186Y140888D01*
Y142054D01*
X216769Y142637D01*
X217353D01*
X217936Y142054D01*
Y141471D01*
Y142054D01*
X218519Y142637D01*
X219102D01*
X219685Y142054D01*
Y140888D01*
X219102Y140305D01*
X219685Y183307D02*
X216186D01*
Y185056D01*
X216769Y185640D01*
X217936D01*
X218519Y185056D01*
Y183307D01*
Y184473D02*
X219685Y185640D01*
X216186Y186806D02*
Y189138D01*
X216769D01*
X219102Y186806D01*
X219685D01*
Y192054D02*
X216186D01*
X217936Y190305D01*
Y192637D01*
X219685Y233307D02*
X216186D01*
Y235056D01*
X216769Y235640D01*
X217936D01*
X218519Y235056D01*
Y233307D01*
Y234473D02*
X219685Y235640D01*
X216186Y236806D02*
Y239139D01*
X216769D01*
X219102Y236806D01*
X219685D01*
X216186Y242637D02*
Y240305D01*
X217936D01*
X217353Y241471D01*
Y242054D01*
X217936Y242637D01*
X219102D01*
X219685Y242054D01*
Y240888D01*
X219102Y240305D01*
X234685Y233307D02*
X231186D01*
Y235056D01*
X231769Y235640D01*
X232936D01*
X233519Y235056D01*
Y233307D01*
Y234473D02*
X234685Y235640D01*
X231186Y236806D02*
Y239139D01*
X231769D01*
X234102Y236806D01*
X234685D01*
X231186Y242637D02*
X231769Y241471D01*
X232936Y240305D01*
X234102D01*
X234685Y240888D01*
Y242054D01*
X234102Y242637D01*
X233519D01*
X232936Y242054D01*
Y240305D01*
X234685Y183307D02*
X231186D01*
Y185056D01*
X231769Y185640D01*
X232936D01*
X233519Y185056D01*
Y183307D01*
Y184473D02*
X234685Y185640D01*
X231186Y186806D02*
Y189138D01*
X231769D01*
X234102Y186806D01*
X234685D01*
X231186Y190305D02*
Y192637D01*
X231769D01*
X234102Y190305D01*
X234685D01*
Y134307D02*
X231186D01*
Y136056D01*
X231769Y136640D01*
X232936D01*
X233519Y136056D01*
Y134307D01*
Y135473D02*
X234685Y136640D01*
X231186Y137806D02*
Y140138D01*
X231769D01*
X234102Y137806D01*
X234685D01*
X231769Y141305D02*
X231186Y141888D01*
Y143054D01*
X231769Y143637D01*
X232352D01*
X232936Y143054D01*
X233519Y143637D01*
X234102D01*
X234685Y143054D01*
Y141888D01*
X234102Y141305D01*
X233519D01*
X232936Y141888D01*
X232352Y141305D01*
X231769D01*
X232936Y141888D02*
Y143054D01*
X234685Y83307D02*
X231186D01*
Y85057D01*
X231769Y85640D01*
X232936D01*
X233519Y85057D01*
Y83307D01*
Y84473D02*
X234685Y85640D01*
X231186Y86806D02*
Y89139D01*
X231769D01*
X234102Y86806D01*
X234685D01*
X234102Y90305D02*
X234685Y90888D01*
Y92054D01*
X234102Y92637D01*
X231769D01*
X231186Y92054D01*
Y90888D01*
X231769Y90305D01*
X232352D01*
X232936Y90888D01*
Y92637D01*
X234685Y33307D02*
X231186D01*
Y35056D01*
X231769Y35640D01*
X232936D01*
X233519Y35056D01*
Y33307D01*
Y34473D02*
X234685Y35640D01*
X231769Y36806D02*
X231186Y37389D01*
Y38555D01*
X231769Y39138D01*
X232352D01*
X232936Y38555D01*
X233519Y39138D01*
X234102D01*
X234685Y38555D01*
Y37389D01*
X234102Y36806D01*
X233519D01*
X232936Y37389D01*
X232352Y36806D01*
X231769D01*
X232936Y37389D02*
Y38555D01*
X231769Y40305D02*
X231186Y40888D01*
Y42054D01*
X231769Y42637D01*
X234102D01*
X234685Y42054D01*
Y40888D01*
X234102Y40305D01*
X231769D01*
X249685Y33307D02*
X246186D01*
Y35056D01*
X246769Y35640D01*
X247936D01*
X248519Y35056D01*
Y33307D01*
Y34473D02*
X249685Y35640D01*
X246769Y36806D02*
X246186Y37389D01*
Y38555D01*
X246769Y39138D01*
X247353D01*
X247936Y38555D01*
X248519Y39138D01*
X249102D01*
X249685Y38555D01*
Y37389D01*
X249102Y36806D01*
X248519D01*
X247936Y37389D01*
X247353Y36806D01*
X246769D01*
X247936Y37389D02*
Y38555D01*
X249685Y40305D02*
Y41471D01*
Y40888D01*
X246186D01*
X246769Y40305D01*
X249685Y83307D02*
X246186D01*
Y85057D01*
X246769Y85640D01*
X247936D01*
X248519Y85057D01*
Y83307D01*
Y84473D02*
X249685Y85640D01*
X246769Y86806D02*
X246186Y87389D01*
Y88555D01*
X246769Y89139D01*
X247353D01*
X247936Y88555D01*
X248519Y89139D01*
X249102D01*
X249685Y88555D01*
Y87389D01*
X249102Y86806D01*
X248519D01*
X247936Y87389D01*
X247353Y86806D01*
X246769D01*
X247936Y87389D02*
Y88555D01*
X249685Y92637D02*
Y90305D01*
X247353Y92637D01*
X246769D01*
X246186Y92054D01*
Y90888D01*
X246769Y90305D01*
X249685Y133307D02*
X246186D01*
Y135056D01*
X246769Y135640D01*
X247936D01*
X248519Y135056D01*
Y133307D01*
Y134473D02*
X249685Y135640D01*
X246769Y136806D02*
X246186Y137389D01*
Y138555D01*
X246769Y139138D01*
X247353D01*
X247936Y138555D01*
X248519Y139138D01*
X249102D01*
X249685Y138555D01*
Y137389D01*
X249102Y136806D01*
X248519D01*
X247936Y137389D01*
X247353Y136806D01*
X246769D01*
X247936Y137389D02*
Y138555D01*
X246769Y140305D02*
X246186Y140888D01*
Y142054D01*
X246769Y142637D01*
X247353D01*
X247936Y142054D01*
Y141471D01*
Y142054D01*
X248519Y142637D01*
X249102D01*
X249685Y142054D01*
Y140888D01*
X249102Y140305D01*
X249685Y183307D02*
X246186D01*
Y185056D01*
X246769Y185640D01*
X247936D01*
X248519Y185056D01*
Y183307D01*
Y184473D02*
X249685Y185640D01*
X246769Y186806D02*
X246186Y187389D01*
Y188555D01*
X246769Y189138D01*
X247353D01*
X247936Y188555D01*
X248519Y189138D01*
X249102D01*
X249685Y188555D01*
Y187389D01*
X249102Y186806D01*
X248519D01*
X247936Y187389D01*
X247353Y186806D01*
X246769D01*
X247936Y187389D02*
Y188555D01*
X249685Y192054D02*
X246186D01*
X247936Y190305D01*
Y192637D01*
X249685Y233307D02*
X246186D01*
Y235056D01*
X246769Y235640D01*
X247936D01*
X248519Y235056D01*
Y233307D01*
Y234473D02*
X249685Y235640D01*
X246769Y236806D02*
X246186Y237389D01*
Y238555D01*
X246769Y239139D01*
X247353D01*
X247936Y238555D01*
X248519Y239139D01*
X249102D01*
X249685Y238555D01*
Y237389D01*
X249102Y236806D01*
X248519D01*
X247936Y237389D01*
X247353Y236806D01*
X246769D01*
X247936Y237389D02*
Y238555D01*
X246186Y242637D02*
Y240305D01*
X247936D01*
X247353Y241471D01*
Y242054D01*
X247936Y242637D01*
X249102D01*
X249685Y242054D01*
Y240888D01*
X249102Y240305D01*
X264685Y233307D02*
X261186D01*
Y235056D01*
X261769Y235640D01*
X262936D01*
X263519Y235056D01*
Y233307D01*
Y234473D02*
X264685Y235640D01*
X261769Y236806D02*
X261186Y237389D01*
Y238555D01*
X261769Y239139D01*
X262352D01*
X262936Y238555D01*
X263519Y239139D01*
X264102D01*
X264685Y238555D01*
Y237389D01*
X264102Y236806D01*
X263519D01*
X262936Y237389D01*
X262352Y236806D01*
X261769D01*
X262936Y237389D02*
Y238555D01*
X261186Y242637D02*
X261769Y241471D01*
X262936Y240305D01*
X264102D01*
X264685Y240888D01*
Y242054D01*
X264102Y242637D01*
X263519D01*
X262936Y242054D01*
Y240305D01*
X264685Y183307D02*
X261186D01*
Y185056D01*
X261769Y185640D01*
X262936D01*
X263519Y185056D01*
Y183307D01*
Y184473D02*
X264685Y185640D01*
X261769Y186806D02*
X261186Y187389D01*
Y188555D01*
X261769Y189138D01*
X262352D01*
X262936Y188555D01*
X263519Y189138D01*
X264102D01*
X264685Y188555D01*
Y187389D01*
X264102Y186806D01*
X263519D01*
X262936Y187389D01*
X262352Y186806D01*
X261769D01*
X262936Y187389D02*
Y188555D01*
X261186Y190305D02*
Y192637D01*
X261769D01*
X264102Y190305D01*
X264685D01*
Y133307D02*
X261186D01*
Y135056D01*
X261769Y135640D01*
X262936D01*
X263519Y135056D01*
Y133307D01*
Y134473D02*
X264685Y135640D01*
X261769Y136806D02*
X261186Y137389D01*
Y138555D01*
X261769Y139138D01*
X262352D01*
X262936Y138555D01*
X263519Y139138D01*
X264102D01*
X264685Y138555D01*
Y137389D01*
X264102Y136806D01*
X263519D01*
X262936Y137389D01*
X262352Y136806D01*
X261769D01*
X262936Y137389D02*
Y138555D01*
X261769Y140305D02*
X261186Y140888D01*
Y142054D01*
X261769Y142637D01*
X262352D01*
X262936Y142054D01*
X263519Y142637D01*
X264102D01*
X264685Y142054D01*
Y140888D01*
X264102Y140305D01*
X263519D01*
X262936Y140888D01*
X262352Y140305D01*
X261769D01*
X262936Y140888D02*
Y142054D01*
X264685Y83307D02*
X261186D01*
Y85057D01*
X261769Y85640D01*
X262936D01*
X263519Y85057D01*
Y83307D01*
Y84473D02*
X264685Y85640D01*
X261769Y86806D02*
X261186Y87389D01*
Y88555D01*
X261769Y89139D01*
X262352D01*
X262936Y88555D01*
X263519Y89139D01*
X264102D01*
X264685Y88555D01*
Y87389D01*
X264102Y86806D01*
X263519D01*
X262936Y87389D01*
X262352Y86806D01*
X261769D01*
X262936Y87389D02*
Y88555D01*
X264102Y90305D02*
X264685Y90888D01*
Y92054D01*
X264102Y92637D01*
X261769D01*
X261186Y92054D01*
Y90888D01*
X261769Y90305D01*
X262352D01*
X262936Y90888D01*
Y92637D01*
X264685Y33307D02*
X261186D01*
Y35056D01*
X261769Y35640D01*
X262936D01*
X263519Y35056D01*
Y33307D01*
Y34473D02*
X264685Y35640D01*
X264102Y36806D02*
X264685Y37389D01*
Y38555D01*
X264102Y39138D01*
X261769D01*
X261186Y38555D01*
Y37389D01*
X261769Y36806D01*
X262352D01*
X262936Y37389D01*
Y39138D01*
X261769Y40305D02*
X261186Y40888D01*
Y42054D01*
X261769Y42637D01*
X264102D01*
X264685Y42054D01*
Y40888D01*
X264102Y40305D01*
X261769D01*
X279685Y33307D02*
X276186D01*
Y35056D01*
X276769Y35640D01*
X277936D01*
X278519Y35056D01*
Y33307D01*
Y34473D02*
X279685Y35640D01*
X279102Y36806D02*
X279685Y37389D01*
Y38555D01*
X279102Y39138D01*
X276769D01*
X276186Y38555D01*
Y37389D01*
X276769Y36806D01*
X277352D01*
X277936Y37389D01*
Y39138D01*
X279685Y40305D02*
Y41471D01*
Y40888D01*
X276186D01*
X276769Y40305D01*
X279685Y83307D02*
X276186D01*
Y85057D01*
X276769Y85640D01*
X277936D01*
X278519Y85057D01*
Y83307D01*
Y84473D02*
X279685Y85640D01*
X279102Y86806D02*
X279685Y87389D01*
Y88555D01*
X279102Y89139D01*
X276769D01*
X276186Y88555D01*
Y87389D01*
X276769Y86806D01*
X277352D01*
X277936Y87389D01*
Y89139D01*
X279685Y92637D02*
Y90305D01*
X277352Y92637D01*
X276769D01*
X276186Y92054D01*
Y90888D01*
X276769Y90305D01*
X279685Y133307D02*
X276186D01*
Y135056D01*
X276769Y135640D01*
X277936D01*
X278519Y135056D01*
Y133307D01*
Y134473D02*
X279685Y135640D01*
X279102Y136806D02*
X279685Y137389D01*
Y138555D01*
X279102Y139138D01*
X276769D01*
X276186Y138555D01*
Y137389D01*
X276769Y136806D01*
X277352D01*
X277936Y137389D01*
Y139138D01*
X276769Y140305D02*
X276186Y140888D01*
Y142054D01*
X276769Y142637D01*
X277352D01*
X277936Y142054D01*
Y141471D01*
Y142054D01*
X278519Y142637D01*
X279102D01*
X279685Y142054D01*
Y140888D01*
X279102Y140305D01*
X279685Y183307D02*
X276186D01*
Y185056D01*
X276769Y185640D01*
X277936D01*
X278519Y185056D01*
Y183307D01*
Y184473D02*
X279685Y185640D01*
X279102Y186806D02*
X279685Y187389D01*
Y188555D01*
X279102Y189138D01*
X276769D01*
X276186Y188555D01*
Y187389D01*
X276769Y186806D01*
X277352D01*
X277936Y187389D01*
Y189138D01*
X279685Y192054D02*
X276186D01*
X277936Y190305D01*
Y192637D01*
X279685Y233307D02*
X276186D01*
Y235056D01*
X276769Y235640D01*
X277936D01*
X278519Y235056D01*
Y233307D01*
Y234473D02*
X279685Y235640D01*
X279102Y236806D02*
X279685Y237389D01*
Y238555D01*
X279102Y239139D01*
X276769D01*
X276186Y238555D01*
Y237389D01*
X276769Y236806D01*
X277352D01*
X277936Y237389D01*
Y239139D01*
X276186Y242637D02*
Y240305D01*
X277936D01*
X277352Y241471D01*
Y242054D01*
X277936Y242637D01*
X279102D01*
X279685Y242054D01*
Y240888D01*
X279102Y240305D01*
X294685Y233307D02*
X291186D01*
Y235056D01*
X291769Y235640D01*
X292936D01*
X293519Y235056D01*
Y233307D01*
Y234473D02*
X294685Y235640D01*
X294102Y236806D02*
X294685Y237389D01*
Y238555D01*
X294102Y239139D01*
X291769D01*
X291186Y238555D01*
Y237389D01*
X291769Y236806D01*
X292353D01*
X292936Y237389D01*
Y239139D01*
X291186Y242637D02*
X291769Y241471D01*
X292936Y240305D01*
X294102D01*
X294685Y240888D01*
Y242054D01*
X294102Y242637D01*
X293519D01*
X292936Y242054D01*
Y240305D01*
X294685Y183307D02*
X291186D01*
Y185056D01*
X291769Y185640D01*
X292936D01*
X293519Y185056D01*
Y183307D01*
Y184473D02*
X294685Y185640D01*
X294102Y186806D02*
X294685Y187389D01*
Y188555D01*
X294102Y189138D01*
X291769D01*
X291186Y188555D01*
Y187389D01*
X291769Y186806D01*
X292353D01*
X292936Y187389D01*
Y189138D01*
X291186Y190305D02*
Y192637D01*
X291769D01*
X294102Y190305D01*
X294685D01*
Y133307D02*
X291186D01*
Y135056D01*
X291769Y135640D01*
X292936D01*
X293519Y135056D01*
Y133307D01*
Y134473D02*
X294685Y135640D01*
X294102Y136806D02*
X294685Y137389D01*
Y138555D01*
X294102Y139138D01*
X291769D01*
X291186Y138555D01*
Y137389D01*
X291769Y136806D01*
X292353D01*
X292936Y137389D01*
Y139138D01*
X291769Y140305D02*
X291186Y140888D01*
Y142054D01*
X291769Y142637D01*
X292353D01*
X292936Y142054D01*
X293519Y142637D01*
X294102D01*
X294685Y142054D01*
Y140888D01*
X294102Y140305D01*
X293519D01*
X292936Y140888D01*
X292353Y140305D01*
X291769D01*
X292936Y140888D02*
Y142054D01*
X294685Y83307D02*
X291186D01*
Y85057D01*
X291769Y85640D01*
X292936D01*
X293519Y85057D01*
Y83307D01*
Y84473D02*
X294685Y85640D01*
X294102Y86806D02*
X294685Y87389D01*
Y88555D01*
X294102Y89139D01*
X291769D01*
X291186Y88555D01*
Y87389D01*
X291769Y86806D01*
X292353D01*
X292936Y87389D01*
Y89139D01*
X294102Y90305D02*
X294685Y90888D01*
Y92054D01*
X294102Y92637D01*
X291769D01*
X291186Y92054D01*
Y90888D01*
X291769Y90305D01*
X292353D01*
X292936Y90888D01*
Y92637D01*
X294685Y33307D02*
X291186D01*
Y35056D01*
X291769Y35640D01*
X292936D01*
X293519Y35056D01*
Y33307D01*
Y34473D02*
X294685Y35640D01*
Y36806D02*
Y37972D01*
Y37389D01*
X291186D01*
X291769Y36806D01*
Y39722D02*
X291186Y40305D01*
Y41471D01*
X291769Y42054D01*
X294102D01*
X294685Y41471D01*
Y40305D01*
X294102Y39722D01*
X291769D01*
Y43220D02*
X291186Y43804D01*
Y44970D01*
X291769Y45553D01*
X294102D01*
X294685Y44970D01*
Y43804D01*
X294102Y43220D01*
X291769D01*
M02*
