M48
;Layer_Color=9474304
;FILE_FORMAT=2:5
INCH,LZ
;TYPE=PLATED
T1F00S00C0.03346
T2F00S00C0.05906
%
T01
X0014685Y0023307
X0029685
X0044685
X0059685
X0074685
X0089685
X0104685
X0119685
X0134685
X0149685
X0164685
X0179685
X0194685
X0209685
X0224685
X0239685
X0254685
X0269685
X0284685
X0299685
Y0063307
Y0073307
X0284685
Y0063307
X0269685
Y0073307
X0254685
Y0063307
X0239685
Y0073307
X0224685
Y0063307
Y0113307
Y0123307
X0239685
Y0113307
X0254685
Y0123307
X0269685
Y0113307
X0284685
Y0123307
X0299685
Y0113307
Y0163307
Y0173307
X0284685
Y0163307
X0269685
Y0173307
X0254685
Y0163307
X0239685
Y0173307
X0224685
Y0163307
X0209685
Y0173307
X0194685
Y0163307
X0179685
Y0173307
X0164685
Y0163307
X0149685
Y0173307
X0134685
Y0163307
X0119685
Y0173307
X0104685
Y0163307
X0089685
Y0173307
X0074685
Y0163307
X0059685
Y0173307
Y0123307
Y0113307
X0074685
Y0123307
X0089685
Y0113307
X0104685
Y0123307
X0119685
Y0113307
X0134685
Y0123307
X0149685
Y0113307
X0164685
Y0123307
X0179685
Y0113307
X0194685
Y0123307
X0209685
Y0113307
Y0073307
Y0063307
X0194685
Y0073307
X0179685
Y0063307
X0164685
Y0073307
X0149685
Y0063307
X0134685
Y0073307
X0119685
Y0063307
X0104685
Y0073307
X0089685
Y0063307
X0074685
Y0073307
X0059685
Y0063307
X0044685
Y0073307
X0029685
Y0063307
X0014685
Y0073307
Y0113307
Y0123307
X0029685
Y0113307
X0044685
Y0123307
Y0163307
Y0173307
X0029685
Y0163307
X0014685
Y0173307
Y0213307
Y0223307
X0029685
Y0213307
X0044685
Y0223307
Y0263307
X0029685
X0014685
X0059685
X0074685
X0089685
X0104685
X0119685
X0134685
X0149685
X0164685
X0179685
X0194685
X0209685
Y0223307
Y0213307
X0194685
Y0223307
X0179685
Y0213307
X0164685
Y0223307
X0149685
Y0213307
X0134685
Y0223307
X0119685
Y0213307
X0104685
Y0223307
X0089685
Y0213307
X0074685
Y0223307
X0059685
Y0213307
X0224685
Y0223307
X0239685
Y0213307
X0254685
Y0223307
X0269685
Y0213307
X0284685
Y0223307
X0299685
Y0213307
Y0263307
X0284685
X0269685
X0254685
X0239685
X0224685
T02
X0014685Y0011937
X0299685
M30
